<svg xmlns="http://www.w3.org/2000/svg" viewBox="0 0 150 32" width="600" height="126" role="img" aria-label="broad, notched P waves (P mitrale) in lead II">
<title>broad, notched P waves (P mitrale) in lead II</title>
<rect width="150" height="32" fill="#fff8f8"/>
<path d="M1 0V32M2 0V32M3 0V32M4 0V32M6 0V32M7 0V32M8 0V32M9 0V32M11 0V32M12 0V32M13 0V32M14 0V32M16 0V32M17 0V32M18 0V32M19 0V32M21 0V32M22 0V32M23 0V32M24 0V32M26 0V32M27 0V32M28 0V32M29 0V32M31 0V32M32 0V32M33 0V32M34 0V32M36 0V32M37 0V32M38 0V32M39 0V32M41 0V32M42 0V32M43 0V32M44 0V32M46 0V32M47 0V32M48 0V32M49 0V32M51 0V32M52 0V32M53 0V32M54 0V32M56 0V32M57 0V32M58 0V32M59 0V32M61 0V32M62 0V32M63 0V32M64 0V32M66 0V32M67 0V32M68 0V32M69 0V32M71 0V32M72 0V32M73 0V32M74 0V32M76 0V32M77 0V32M78 0V32M79 0V32M81 0V32M82 0V32M83 0V32M84 0V32M86 0V32M87 0V32M88 0V32M89 0V32M91 0V32M92 0V32M93 0V32M94 0V32M96 0V32M97 0V32M98 0V32M99 0V32M101 0V32M102 0V32M103 0V32M104 0V32M106 0V32M107 0V32M108 0V32M109 0V32M111 0V32M112 0V32M113 0V32M114 0V32M116 0V32M117 0V32M118 0V32M119 0V32M121 0V32M122 0V32M123 0V32M124 0V32M126 0V32M127 0V32M128 0V32M129 0V32M131 0V32M132 0V32M133 0V32M134 0V32M136 0V32M137 0V32M138 0V32M139 0V32M141 0V32M142 0V32M143 0V32M144 0V32M146 0V32M147 0V32M148 0V32M149 0V32M0 1H150M0 2H150M0 3H150M0 4H150M0 6H150M0 7H150M0 8H150M0 9H150M0 11H150M0 12H150M0 13H150M0 14H150M0 16H150M0 17H150M0 18H150M0 19H150M0 21H150M0 22H150M0 23H150M0 24H150M0 26H150M0 27H150M0 28H150M0 29H150M0 31H150" stroke="#f6c9cd" stroke-width="0.1"/>
<path d="M0 0V32M5 0V32M10 0V32M15 0V32M20 0V32M25 0V32M30 0V32M35 0V32M40 0V32M45 0V32M50 0V32M55 0V32M60 0V32M65 0V32M70 0V32M75 0V32M80 0V32M85 0V32M90 0V32M95 0V32M100 0V32M105 0V32M110 0V32M115 0V32M120 0V32M125 0V32M130 0V32M135 0V32M140 0V32M145 0V32M150 0V32M0 0H150M0 5H150M0 10H150M0 15H150M0 20H150M0 25H150M0 30H150" stroke="#ec9ea6" stroke-width="0.25"/>
<polyline points="0.00,17.00 0.10,17.00 0.20,17.00 0.30,17.00 0.40,17.00 0.50,17.00 0.60,17.00 0.70,17.00 0.80,17.00 0.90,17.00 1.00,17.00 1.10,17.00 1.20,17.00 1.30,17.00 1.40,17.00 1.50,17.00 1.60,17.00 1.70,17.00 1.80,17.00 1.90,17.00 2.00,17.00 2.10,17.00 2.20,17.00 2.30,17.00 2.40,17.00 2.50,17.00 2.60,17.00 2.70,17.00 2.80,17.00 2.90,17.00 3.00,17.00 3.10,17.00 3.20,17.00 3.30,17.00 3.40,16.99 3.50,16.98 3.60,16.95 3.70,16.92 3.80,16.86 3.90,16.77 4.00,16.65 4.10,16.49 4.20,16.32 4.30,16.13 4.40,15.97 4.50,15.85 4.60,15.78 4.70,15.78 4.80,15.84 4.90,15.94 5.00,16.05 5.10,16.13 5.20,16.18 5.30,16.18 5.40,16.13 5.50,16.04 5.60,15.94 5.70,15.85 5.80,15.80 5.90,15.79 6.00,15.84 6.10,15.94 6.20,16.07 6.30,16.23 6.40,16.39 6.50,16.54 6.60,16.67 6.70,16.78 6.80,16.85 6.90,16.91 7.00,16.95 7.10,16.97 7.20,16.98 7.30,16.99 7.40,17.00 7.50,17.00 7.60,17.00 7.70,17.00 7.80,17.00 7.90,17.00 8.00,17.00 8.10,17.00 8.20,17.00 8.30,17.00 8.40,17.00 8.50,17.01 8.60,17.03 8.70,17.10 8.80,17.27 8.90,17.49 9.00,17.57 9.10,17.21 9.20,16.20 9.30,14.51 9.40,12.24 9.50,9.77 9.60,7.79 9.70,7.04 9.80,7.89 9.90,10.04 10.00,12.74 10.10,15.29 10.20,17.24 10.30,18.47 10.40,19.00 10.50,18.97 10.60,18.58 10.70,18.07 10.80,17.61 10.90,17.30 11.00,17.12 11.10,17.04 11.20,17.01 11.30,17.00 11.40,16.99 11.50,16.99 11.60,16.99 11.70,16.99 11.80,16.98 11.90,16.98 12.00,16.97 12.10,16.97 12.20,16.96 12.30,16.95 12.40,16.94 12.50,16.93 12.60,16.91 12.70,16.89 12.80,16.87 12.90,16.85 13.00,16.82 13.10,16.78 13.20,16.74 13.30,16.70 13.40,16.65 13.50,16.59 13.60,16.53 13.70,16.46 13.80,16.39 13.90,16.30 14.00,16.21 14.10,16.12 14.20,16.01 14.30,15.90 14.40,15.79 14.50,15.67 14.60,15.54 14.70,15.41 14.80,15.28 14.90,15.15 15.00,15.02 15.10,14.89 15.20,14.76 15.30,14.64 15.40,14.52 15.50,14.41 15.60,14.32 15.70,14.23 15.80,14.16 15.90,14.10 16.00,14.05 16.10,14.02 16.20,14.00 16.30,14.00 16.40,14.03 16.50,14.09 16.60,14.18 16.70,14.29 16.80,14.42 16.90,14.57 17.00,14.74 17.10,14.91 17.20,15.09 17.30,15.27 17.40,15.45 17.50,15.63 17.60,15.79 17.70,15.95 17.80,16.10 17.90,16.23 18.00,16.35 18.10,16.46 18.20,16.55 18.30,16.63 18.40,16.70 18.50,16.76 18.60,16.81 18.70,16.85 18.80,16.88 18.90,16.91 19.00,16.93 19.10,16.95 19.20,16.96 19.30,16.97 19.40,16.98 19.50,16.98 19.60,16.99 19.70,16.99 19.80,16.99 19.90,17.00 20.00,17.00 20.10,17.00 20.20,17.00 20.30,17.00 20.40,17.00 20.50,17.00 20.60,17.00 20.70,17.00 20.80,17.00 20.90,17.00 21.00,17.00 21.10,17.00 21.20,17.00 21.30,17.00 21.40,17.00 21.50,17.00 21.60,17.00 21.70,17.00 21.80,17.00 21.90,17.00 22.00,17.00 22.10,17.00 22.20,17.00 22.30,17.00 22.40,17.00 22.50,17.00 22.60,17.00 22.70,17.00 22.80,17.00 22.90,17.00 23.00,17.00 23.10,17.00 23.20,17.00 23.30,17.00 23.40,17.00 23.50,17.00 23.60,17.00 23.70,17.00 23.80,17.00 23.90,17.00 24.00,17.00 24.10,17.00 24.20,17.00 24.30,17.00 24.40,17.00 24.50,17.00 24.60,17.00 24.70,17.00 24.80,16.99 24.90,16.98 25.00,16.96 25.10,16.93 25.20,16.88 25.30,16.80 25.40,16.68 25.50,16.54 25.60,16.37 25.70,16.19 25.80,16.01 25.90,15.88 26.00,15.79 26.10,15.77 26.20,15.82 26.30,15.91 26.40,16.02 26.50,16.11 26.60,16.17 26.70,16.19 26.80,16.15 26.90,16.07 27.00,15.97 27.10,15.88 27.20,15.81 27.30,15.79 27.40,15.82 27.50,15.91 27.60,16.03 27.70,16.19 27.80,16.35 27.90,16.50 28.00,16.64 28.10,16.75 28.20,16.84 28.30,16.90 28.40,16.94 28.50,16.96 28.60,16.98 28.70,16.99 28.80,17.00 28.90,17.00 29.00,17.00 29.10,17.00 29.20,17.00 29.30,17.00 29.40,17.00 29.50,17.00 29.60,17.00 29.70,17.00 29.80,17.00 29.90,17.00 30.00,17.02 30.10,17.07 30.20,17.22 30.30,17.43 30.40,17.58 30.50,17.37 30.60,16.56 30.70,15.06 30.80,12.93 30.90,10.46 31.00,8.26 31.10,7.10 31.20,7.49 31.30,9.33 31.40,11.96 31.50,14.61 31.60,16.76 31.70,18.19 31.80,18.91 31.90,19.03 32.00,18.72 32.10,18.22 32.20,17.73 32.30,17.37 32.40,17.16 32.50,17.06 32.60,17.02 32.70,17.00 32.80,17.00 32.90,16.99 33.00,16.99 33.10,16.99 33.20,16.99 33.30,16.98 33.40,16.98 33.50,16.97 33.60,16.96 33.70,16.95 33.80,16.94 33.90,16.93 34.00,16.92 34.10,16.90 34.20,16.88 34.30,16.85 34.40,16.83 34.50,16.79 34.60,16.76 34.70,16.71 34.80,16.66 34.90,16.61 35.00,16.55 35.10,16.48 35.20,16.41 35.30,16.33 35.40,16.24 35.50,16.14 35.60,16.04 35.70,15.93 35.80,15.82 35.90,15.70 36.00,15.58 36.10,15.45 36.20,15.32 36.30,15.19 36.40,15.05 36.50,14.92 36.60,14.79 36.70,14.67 36.80,14.55 36.90,14.44 37.00,14.34 37.10,14.25 37.20,14.18 37.30,14.11 37.40,14.06 37.50,14.03 37.60,14.00 37.70,14.00 37.80,14.02 37.90,14.07 38.00,14.15 38.10,14.25 38.20,14.38 38.30,14.53 38.40,14.69 38.50,14.86 38.60,15.04 38.70,15.22 38.80,15.40 38.90,15.58 39.00,15.75 39.10,15.91 39.20,16.06 39.30,16.19 39.40,16.32 39.50,16.43 39.60,16.53 39.70,16.61 39.80,16.68 39.90,16.75 40.00,16.80 40.10,16.84 40.20,16.88 40.30,16.90 40.40,16.93 40.50,16.94 40.60,16.96 40.70,16.97 40.80,16.98 40.90,16.98 41.00,16.99 41.10,16.99 41.20,16.99 41.30,17.00 41.40,17.00 41.50,17.00 41.60,17.00 41.70,17.00 41.80,17.00 41.90,17.00 42.00,17.00 42.10,17.00 42.20,17.00 42.30,17.00 42.40,17.00 42.50,17.00 42.60,17.00 42.70,17.00 42.80,17.00 42.90,17.00 43.00,17.00 43.10,17.00 43.20,17.00 43.30,17.00 43.40,17.00 43.50,17.00 43.60,17.00 43.70,17.00 43.80,17.00 43.90,17.00 44.00,17.00 44.10,17.00 44.20,17.00 44.30,17.00 44.40,17.00 44.50,17.00 44.60,17.00 44.70,17.00 44.80,17.00 44.90,17.00 45.00,17.00 45.10,17.00 45.20,17.00 45.30,17.00 45.40,17.00 45.50,17.00 45.60,17.00 45.70,17.00 45.80,17.00 45.90,17.00 46.00,17.00 46.10,17.00 46.20,16.99 46.30,16.98 46.40,16.97 46.50,16.94 46.60,16.89 46.70,16.82 46.80,16.72 46.90,16.58 47.00,16.42 47.10,16.24 47.20,16.06 47.30,15.91 47.40,15.81 47.50,15.77 47.60,15.80 47.70,15.88 47.80,15.98 47.90,16.09 48.00,16.16 48.10,16.19 48.20,16.16 48.30,16.09 48.40,16.00 48.50,15.90 48.60,15.83 48.70,15.79 48.80,15.81 48.90,15.88 49.00,15.99 49.10,16.14 49.20,16.30 49.30,16.46 49.40,16.60 49.50,16.72 49.60,16.81 49.70,16.88 49.80,16.93 49.90,16.96 50.00,16.98 50.10,16.99 50.20,16.99 50.30,17.00 50.40,17.00 50.50,17.00 50.60,17.00 50.70,17.00 50.80,17.00 50.90,17.00 51.00,17.00 51.10,17.00 51.20,17.00 51.30,17.00 51.40,17.01 51.50,17.05 51.60,17.16 51.70,17.37 51.80,17.56 51.90,17.48 52.00,16.86 52.10,15.56 52.20,13.59 52.30,11.17 52.40,8.81 52.50,7.28 52.60,7.22 52.70,8.69 52.80,11.17 52.90,13.89 53.00,16.21 53.10,17.86 53.20,18.78 53.30,19.05 53.40,18.83 53.50,18.36 53.60,17.86 53.70,17.46 53.80,17.21 53.90,17.08 54.00,17.03 54.10,17.01 54.20,17.00 54.30,16.99 54.40,16.99 54.50,16.99 54.60,16.99 54.70,16.98 54.80,16.98 54.90,16.97 55.00,16.97 55.10,16.96 55.20,16.95 55.30,16.94 55.40,16.92 55.50,16.90 55.60,16.88 55.70,16.86 55.80,16.83 55.90,16.80 56.00,16.77 56.10,16.73 56.20,16.68 56.30,16.63 56.40,16.57 56.50,16.50 56.60,16.43 56.70,16.35 56.80,16.27 56.90,16.17 57.00,16.07 57.10,15.97 57.20,15.85 57.30,15.74 57.40,15.61 57.50,15.48 57.60,15.35 57.70,15.22 57.80,15.09 57.90,14.96 58.00,14.83 58.10,14.71 58.20,14.59 58.30,14.47 58.40,14.37 58.50,14.28 58.60,14.20 58.70,14.13 58.80,14.07 58.90,14.03 59.00,14.01 59.10,14.00 59.20,14.01 59.30,14.06 59.40,14.13 59.50,14.22 59.60,14.34 59.70,14.48 59.80,14.64 59.90,14.81 60.00,14.99 60.10,15.17 60.20,15.35 60.30,15.53 60.40,15.70 60.50,15.86 60.60,16.02 60.70,16.16 60.80,16.28 60.90,16.40 61.00,16.50 61.10,16.59 61.20,16.66 61.30,16.73 61.40,16.78 61.50,16.83 61.60,16.87 61.70,16.90 61.80,16.92 61.90,16.94 62.00,16.95 62.10,16.97 62.20,16.97 62.30,16.98 62.40,16.99 62.50,16.99 62.60,16.99 62.70,17.00 62.80,17.00 62.90,17.00 63.00,17.00 63.10,17.00 63.20,17.00 63.30,17.00 63.40,17.00 63.50,17.00 63.60,17.00 63.70,17.00 63.80,17.00 63.90,17.00 64.00,17.00 64.10,17.00 64.20,17.00 64.30,17.00 64.40,17.00 64.50,17.00 64.60,17.00 64.70,17.00 64.80,17.00 64.90,17.00 65.00,17.00 65.10,17.00 65.20,17.00 65.30,17.00 65.40,17.00 65.50,17.00 65.60,17.00 65.70,17.00 65.80,17.00 65.90,17.00 66.00,17.00 66.10,17.00 66.20,17.00 66.30,17.00 66.40,17.00 66.50,17.00 66.60,17.00 66.70,17.00 66.80,17.00 66.90,17.00 67.00,17.00 67.10,17.00 67.20,17.00 67.30,17.00 67.40,17.00 67.50,17.00 67.60,16.99 67.70,16.99 67.80,16.97 67.90,16.95 68.00,16.91 68.10,16.85 68.20,16.75 68.30,16.63 68.40,16.47 68.50,16.29 68.60,16.11 68.70,15.95 68.80,15.83 68.90,15.78 69.00,15.79 69.10,15.85 69.20,15.95 69.30,16.06 69.40,16.14 69.50,16.19 69.60,16.18 69.70,16.12 69.80,16.03 69.90,15.93 70.00,15.84 70.10,15.80 70.20,15.80 70.30,15.85 70.40,15.96 70.50,16.10 70.60,16.25 70.70,16.41 70.80,16.56 70.90,16.69 71.00,16.79 71.10,16.86 71.20,16.92 71.30,16.95 71.40,16.97 71.50,16.99 71.60,16.99 71.70,17.00 71.80,17.00 71.90,17.00 72.00,17.00 72.10,17.00 72.20,17.00 72.30,17.00 72.40,17.00 72.50,17.00 72.60,17.00 72.70,17.00 72.80,17.01 72.90,17.04 73.00,17.12 73.10,17.30 73.20,17.52 73.30,17.55 73.40,17.10 73.50,16.00 73.60,14.21 73.70,11.89 73.80,9.44 73.90,7.59 74.00,7.07 74.10,8.13 74.20,10.41 74.30,13.13 74.40,15.61 74.50,17.46 74.60,18.59 74.70,19.03 74.80,18.93 74.90,18.51 75.00,18.00 75.10,17.56 75.20,17.27 75.30,17.11 75.40,17.04 75.50,17.01 75.60,17.00 75.70,16.99 75.80,16.99 75.90,16.99 76.00,16.99 76.10,16.98 76.20,16.98 76.30,16.97 76.40,16.97 76.50,16.96 76.60,16.95 76.70,16.94 76.80,16.93 76.90,16.91 77.00,16.89 77.10,16.87 77.20,16.84 77.30,16.81 77.40,16.78 77.50,16.74 77.60,16.69 77.70,16.64 77.80,16.59 77.90,16.52 78.00,16.45 78.10,16.38 78.20,16.29 78.30,16.20 78.40,16.10 78.50,16.00 78.60,15.89 78.70,15.77 78.80,15.65 78.90,15.52 79.00,15.39 79.10,15.26 79.20,15.13 79.30,15.00 79.40,14.87 79.50,14.74 79.60,14.62 79.70,14.51 79.80,14.40 79.90,14.30 80.00,14.22 80.10,14.15 80.20,14.09 80.30,14.04 80.40,14.01 80.50,14.00 80.60,14.01 80.70,14.04 80.80,14.10 80.90,14.19 81.00,14.31 81.10,14.44 81.20,14.59 81.30,14.76 81.40,14.94 81.50,15.12 81.60,15.30 81.70,15.48 81.80,15.65 81.90,15.82 82.00,15.97 82.10,16.12 82.20,16.25 82.30,16.37 82.40,16.47 82.50,16.56 82.60,16.64 82.70,16.71 82.80,16.77 82.90,16.82 83.00,16.86 83.10,16.89 83.20,16.91 83.30,16.93 83.40,16.95 83.50,16.96 83.60,16.97 83.70,16.98 83.80,16.99 83.90,16.99 84.00,16.99 84.10,16.99 84.20,17.00 84.30,17.00 84.40,17.00 84.50,17.00 84.60,17.00 84.70,17.00 84.80,17.00 84.90,17.00 85.00,17.00 85.10,17.00 85.20,17.00 85.30,17.00 85.40,17.00 85.50,17.00 85.60,17.00 85.70,17.00 85.80,17.00 85.90,17.00 86.00,17.00 86.10,17.00 86.20,17.00 86.30,17.00 86.40,17.00 86.50,17.00 86.60,17.00 86.70,17.00 86.80,17.00 86.90,17.00 87.00,17.00 87.10,17.00 87.20,17.00 87.30,17.00 87.40,17.00 87.50,17.00 87.60,17.00 87.70,17.00 87.80,17.00 87.90,17.00 88.00,17.00 88.10,17.00 88.20,17.00 88.30,17.00 88.40,17.00 88.50,17.00 88.60,17.00 88.70,17.00 88.80,17.00 88.90,17.00 89.00,17.00 89.10,16.99 89.20,16.98 89.30,16.96 89.40,16.92 89.50,16.87 89.60,16.78 89.70,16.67 89.80,16.52 89.90,16.34 90.00,16.16 90.10,15.99 90.20,15.86 90.30,15.79 90.40,15.78 90.50,15.83 90.60,15.92 90.70,16.03 90.80,16.12 90.90,16.18 91.00,16.18 91.10,16.14 91.20,16.06 91.30,15.96 91.40,15.87 91.50,15.81 91.60,15.79 91.70,15.83 91.80,15.92 91.90,16.05 92.00,16.21 92.10,16.37 92.20,16.52 92.30,16.66 92.40,16.76 92.50,16.85 92.60,16.90 92.70,16.94 92.80,16.97 92.90,16.98 93.00,16.99 93.10,17.00 93.20,17.00 93.30,17.00 93.40,17.00 93.50,17.00 93.60,17.00 93.70,17.00 93.80,17.00 93.90,17.00 94.00,17.00 94.10,17.00 94.20,17.00 94.30,17.02 94.40,17.09 94.50,17.24 94.60,17.47 94.70,17.58 94.80,17.29 94.90,16.39 95.00,14.79 95.10,12.59 95.20,10.11 95.30,8.01 95.40,7.05 95.50,7.68 95.60,9.68 95.70,12.35 95.80,14.96 95.90,17.01 96.00,18.34 96.10,18.96 96.20,19.00 96.30,18.65 96.40,18.14 96.50,17.67 96.60,17.33 96.70,17.14 96.80,17.05 96.90,17.02 97.00,17.00 97.10,17.00 97.20,16.99 97.30,16.99 97.40,16.99 97.50,16.98 97.60,16.98 97.70,16.98 97.80,16.97 97.90,16.96 98.00,16.95 98.10,16.94 98.20,16.93 98.30,16.91 98.40,16.90 98.50,16.87 98.60,16.85 98.70,16.82 98.80,16.79 98.90,16.75 99.00,16.71 99.10,16.66 99.20,16.60 99.30,16.54 99.40,16.47 99.50,16.40 99.60,16.32 99.70,16.23 99.80,16.13 99.90,16.03 100.00,15.92 100.10,15.80 100.20,15.68 100.30,15.56 100.40,15.43 100.50,15.30 100.60,15.17 100.70,15.03 100.80,14.90 100.90,14.78 101.00,14.65 101.10,14.54 101.20,14.43 101.30,14.33 101.40,14.24 101.50,14.17 101.60,14.10 101.70,14.05 101.80,14.02 101.90,14.00 102.00,14.00 102.10,14.03 102.20,14.08 102.30,14.16 102.40,14.27 102.50,14.40 102.60,14.55 102.70,14.71 102.80,14.88 102.90,15.06 103.00,15.25 103.10,15.43 103.20,15.60 103.30,15.77 103.40,15.93 103.50,16.08 103.60,16.21 103.70,16.33 103.80,16.44 103.90,16.54 104.00,16.62 104.10,16.69 104.20,16.75 104.30,16.80 104.40,16.85 104.50,16.88 104.60,16.91 104.70,16.93 104.80,16.95 104.90,16.96 105.00,16.97 105.10,16.98 105.20,16.98 105.30,16.99 105.40,16.99 105.50,16.99 105.60,17.00 105.70,17.00 105.80,17.00 105.90,17.00 106.00,17.00 106.10,17.00 106.20,17.00 106.30,17.00 106.40,17.00 106.50,17.00 106.60,17.00 106.70,17.00 106.80,17.00 106.90,17.00 107.00,17.00 107.10,17.00 107.20,17.00 107.30,17.00 107.40,17.00 107.50,17.00 107.60,17.00 107.70,17.00 107.80,17.00 107.90,17.00 108.00,17.00 108.10,17.00 108.20,17.00 108.30,17.00 108.40,17.00 108.50,17.00 108.60,17.00 108.70,17.00 108.80,17.00 108.90,17.00 109.00,17.00 109.10,17.00 109.20,17.00 109.30,17.00 109.40,17.00 109.50,17.00 109.60,17.00 109.70,17.00 109.80,17.00 109.90,17.00 110.00,17.00 110.10,17.00 110.20,17.00 110.30,17.00 110.40,17.00 110.50,16.99 110.60,16.98 110.70,16.97 110.80,16.94 110.90,16.89 111.00,16.81 111.10,16.70 111.20,16.56 111.30,16.39 111.40,16.21 111.50,16.04 111.60,15.89 111.70,15.80 111.80,15.77 111.90,15.81 112.00,15.89 112.10,16.00 112.20,16.10 112.30,16.17 112.40,16.19 112.50,16.16 112.60,16.08 112.70,15.99 112.80,15.89 112.90,15.82 113.00,15.79 113.10,15.82 113.20,15.89 113.30,16.01 113.40,16.16 113.50,16.32 113.60,16.48 113.70,16.62 113.80,16.74 113.90,16.82 114.00,16.89 114.10,16.93 114.20,16.96 114.30,16.98 114.40,16.99 114.50,16.99 114.60,17.00 114.70,17.00 114.80,17.00 114.90,17.00 115.00,17.00 115.10,17.00 115.20,17.00 115.30,17.00 115.40,17.00 115.50,17.00 115.60,17.00 115.70,17.01 115.80,17.06 115.90,17.19 116.00,17.40 116.10,17.57 116.20,17.43 116.30,16.72 116.40,15.31 116.50,13.27 116.60,10.82 116.70,8.53 116.80,7.17 116.90,7.34 117.00,9.00 117.10,11.57 117.20,14.25 117.30,16.49 117.40,18.03 117.50,18.85 117.60,19.04 117.70,18.78 117.80,18.29 117.90,17.79 118.00,17.41 118.10,17.18 118.20,17.07 118.30,17.02 118.40,17.00 118.50,17.00 118.60,16.99 118.70,16.99 118.80,16.99 118.90,16.99 119.00,16.98 119.10,16.98 119.20,16.97 119.30,16.96 119.40,16.96 119.50,16.95 119.60,16.93 119.70,16.92 119.80,16.90 119.90,16.88 120.00,16.86 120.10,16.83 120.20,16.80 120.30,16.76 120.40,16.72 120.50,16.67 120.60,16.62 120.70,16.56 120.80,16.49 120.90,16.42 121.00,16.34 121.10,16.25 121.20,16.16 121.30,16.06 121.40,15.95 121.50,15.84 121.60,15.72 121.70,15.59 121.80,15.47 121.90,15.34 122.00,15.20 122.10,15.07 122.20,14.94 122.30,14.81 122.40,14.69 122.50,14.57 122.60,14.46 122.70,14.36 122.80,14.27 122.90,14.19 123.00,14.12 123.10,14.07 123.20,14.03 123.30,14.01 123.40,14.00 123.50,14.02 123.60,14.06 123.70,14.14 123.80,14.24 123.90,14.36 124.00,14.50 124.10,14.66 124.20,14.83 124.30,15.01 124.40,15.19 124.50,15.37 124.60,15.55 124.70,15.72 124.80,15.89 124.90,16.04 125.00,16.18 125.10,16.30 125.20,16.41 125.30,16.51 125.40,16.60 125.50,16.67 125.60,16.74 125.70,16.79 125.80,16.83 125.90,16.87 126.00,16.90 126.10,16.92 126.20,16.94 126.30,16.96 126.40,16.97 126.50,16.98 126.60,16.98 126.70,16.99 126.80,16.99 126.90,16.99 127.00,17.00 127.10,17.00 127.20,17.00 127.30,17.00 127.40,17.00 127.50,17.00 127.60,17.00 127.70,17.00 127.80,17.00 127.90,17.00 128.00,17.00 128.10,17.00 128.20,17.00 128.30,17.00 128.40,17.00 128.50,17.00 128.60,17.00 128.70,17.00 128.80,17.00 128.90,17.00 129.00,17.00 129.10,17.00 129.20,17.00 129.30,17.00 129.40,17.00 129.50,17.00 129.60,17.00 129.70,17.00 129.80,17.00 129.90,17.00 130.00,17.00 130.10,17.00 130.20,17.00 130.30,17.00 130.40,17.00 130.50,17.00 130.60,17.00 130.70,17.00 130.80,17.00 130.90,17.00 131.00,17.00 131.10,17.00 131.20,17.00 131.30,17.00 131.40,17.00 131.50,17.00 131.60,17.00 131.70,17.00 131.80,17.00 131.90,16.99 132.00,16.99 132.10,16.97 132.20,16.95 132.30,16.90 132.40,16.83 132.50,16.74 132.60,16.60 132.70,16.44 132.80,16.26 132.90,16.08 133.00,15.93 133.10,15.82 133.20,15.77 133.30,15.79 133.40,15.87 133.50,15.97 133.60,16.07 133.70,16.15 133.80,16.19 133.90,16.17 134.00,16.11 134.10,16.01 134.20,15.92 134.30,15.84 134.40,15.79 134.50,15.80 134.60,15.87 134.70,15.98 134.80,16.12 134.90,16.28 135.00,16.44 135.10,16.58 135.20,16.70 135.30,16.80 135.40,16.87 135.50,16.92 135.60,16.96 135.70,16.98 135.80,16.99 135.90,16.99 136.00,17.00 136.10,17.00 136.20,17.00 136.30,17.00 136.40,17.00 136.50,17.00 136.60,17.00 136.70,17.00 136.80,17.00 136.90,17.00 137.00,17.00 137.10,17.01 137.20,17.04 137.30,17.14 137.40,17.34 137.50,17.54 137.60,17.52 137.70,16.99 137.80,15.79 137.90,13.91 138.00,11.53 138.10,9.12 138.20,7.42 138.30,7.13 138.40,8.40 138.50,10.79 138.60,13.51 138.70,15.92 138.80,17.67 138.90,18.69 139.00,19.04 139.10,18.89 139.20,18.44 139.30,17.93 139.40,17.51 139.50,17.24 139.60,17.09 139.70,17.03 139.80,17.01 139.90,17.00 140.00,16.99 140.10,16.99 140.20,16.99 140.30,16.99 140.40,16.98 140.50,16.98 140.60,16.97 140.70,16.97 140.80,16.96 140.90,16.95 141.00,16.94 141.10,16.92 141.20,16.91 141.30,16.89 141.40,16.86 141.50,16.84 141.60,16.81 141.70,16.77 141.80,16.73 141.90,16.69 142.00,16.63 142.10,16.58 142.20,16.51 142.30,16.44 142.40,16.36 142.50,16.28 142.60,16.19 142.70,16.09 142.80,15.98 142.90,15.87 143.00,15.75 143.10,15.63 143.20,15.50 143.30,15.37 143.40,15.24 143.50,15.11 143.60,14.98 143.70,14.85 143.80,14.72 143.90,14.60 144.00,14.49 144.10,14.39 144.20,14.29 144.30,14.21 144.40,14.14 144.50,14.08 144.60,14.04 144.70,14.01 144.80,14.00 144.90,14.01 145.00,14.05 145.10,14.11 145.20,14.21 145.30,14.32 145.40,14.46 145.50,14.62 145.60,14.78 145.70,14.96 145.80,15.14 145.90,15.32 146.00,15.50 146.10,15.68 146.20,15.84 146.30,15.99 146.40,16.14 146.50,16.27 146.60,16.38 146.70,16.49 146.80,16.58 146.90,16.65 147.00,16.72 147.10,16.78 147.20,16.82 147.30,16.86 147.40,16.89 147.50,16.92 147.60,16.94 147.70,16.95 147.80,16.96 147.90,16.97 148.00,16.98 148.10,16.99 148.20,16.99 148.30,16.99 148.40,17.00 148.50,17.00 148.60,17.00 148.70,17.00 148.80,17.00 148.90,17.00 149.00,17.00 149.10,17.00 149.20,17.00 149.30,17.00 149.40,17.00 149.50,17.00 149.60,17.00 149.70,17.00 149.80,17.00 149.90,17.00" fill="none" stroke="#1b1b1b" stroke-width="0.42" stroke-linejoin="round" stroke-linecap="round"/>
<text x="1.5" y="4.2" font-family="Arial,Helvetica,sans-serif" font-size="3.40" font-weight="700" fill="#7a1010">II</text>
<text x="26.7" y="12.8" text-anchor="middle" font-family="Arial,Helvetica,sans-serif" font-size="3.00" font-weight="700" fill="#b91c1c">notched P</text>
<text x="148.5" y="30.5" text-anchor="end" font-family="Arial,Helvetica,sans-serif" font-size="2.30" fill="#8a5a5e">Schematic illustration · 25 mm/s · 10 mm/mV · ecgmeans.com</text>
</svg>