<svg xmlns="http://www.w3.org/2000/svg" viewBox="0 0 150 32" width="600" height="126" role="img" aria-label="irregular rhythm over 100 per minute with at least three different P-wave shapes">
<title>irregular rhythm over 100 per minute with at least three different P-wave shapes</title>
<rect width="150" height="32" fill="#fff8f8"/>
<path d="M1 0V32M2 0V32M3 0V32M4 0V32M6 0V32M7 0V32M8 0V32M9 0V32M11 0V32M12 0V32M13 0V32M14 0V32M16 0V32M17 0V32M18 0V32M19 0V32M21 0V32M22 0V32M23 0V32M24 0V32M26 0V32M27 0V32M28 0V32M29 0V32M31 0V32M32 0V32M33 0V32M34 0V32M36 0V32M37 0V32M38 0V32M39 0V32M41 0V32M42 0V32M43 0V32M44 0V32M46 0V32M47 0V32M48 0V32M49 0V32M51 0V32M52 0V32M53 0V32M54 0V32M56 0V32M57 0V32M58 0V32M59 0V32M61 0V32M62 0V32M63 0V32M64 0V32M66 0V32M67 0V32M68 0V32M69 0V32M71 0V32M72 0V32M73 0V32M74 0V32M76 0V32M77 0V32M78 0V32M79 0V32M81 0V32M82 0V32M83 0V32M84 0V32M86 0V32M87 0V32M88 0V32M89 0V32M91 0V32M92 0V32M93 0V32M94 0V32M96 0V32M97 0V32M98 0V32M99 0V32M101 0V32M102 0V32M103 0V32M104 0V32M106 0V32M107 0V32M108 0V32M109 0V32M111 0V32M112 0V32M113 0V32M114 0V32M116 0V32M117 0V32M118 0V32M119 0V32M121 0V32M122 0V32M123 0V32M124 0V32M126 0V32M127 0V32M128 0V32M129 0V32M131 0V32M132 0V32M133 0V32M134 0V32M136 0V32M137 0V32M138 0V32M139 0V32M141 0V32M142 0V32M143 0V32M144 0V32M146 0V32M147 0V32M148 0V32M149 0V32M0 1H150M0 2H150M0 3H150M0 4H150M0 6H150M0 7H150M0 8H150M0 9H150M0 11H150M0 12H150M0 13H150M0 14H150M0 16H150M0 17H150M0 18H150M0 19H150M0 21H150M0 22H150M0 23H150M0 24H150M0 26H150M0 27H150M0 28H150M0 29H150M0 31H150" stroke="#f6c9cd" stroke-width="0.1"/>
<path d="M0 0V32M5 0V32M10 0V32M15 0V32M20 0V32M25 0V32M30 0V32M35 0V32M40 0V32M45 0V32M50 0V32M55 0V32M60 0V32M65 0V32M70 0V32M75 0V32M80 0V32M85 0V32M90 0V32M95 0V32M100 0V32M105 0V32M110 0V32M115 0V32M120 0V32M125 0V32M130 0V32M135 0V32M140 0V32M145 0V32M150 0V32M0 0H150M0 5H150M0 10H150M0 15H150M0 20H150M0 25H150M0 30H150" stroke="#ec9ea6" stroke-width="0.25"/>
<polyline points="0.00,17.00 0.10,17.00 0.20,17.00 0.30,17.00 0.40,17.00 0.50,17.00 0.60,17.00 0.70,17.00 0.80,17.00 0.90,17.00 1.00,17.00 1.10,17.00 1.20,17.00 1.30,17.00 1.40,17.00 1.50,17.00 1.60,17.00 1.70,17.00 1.80,17.00 1.90,17.00 2.00,17.00 2.10,17.00 2.20,17.00 2.30,17.00 2.40,17.00 2.50,17.00 2.60,17.00 2.70,17.00 2.80,17.00 2.90,17.00 3.00,17.00 3.10,17.00 3.20,17.00 3.30,17.00 3.40,17.00 3.50,17.00 3.60,17.00 3.70,17.00 3.80,17.00 3.90,17.00 4.00,17.00 4.10,17.00 4.20,17.00 4.30,17.00 4.40,16.99 4.50,16.99 4.60,16.97 4.70,16.96 4.80,16.93 4.90,16.88 5.00,16.82 5.10,16.74 5.20,16.64 5.30,16.51 5.40,16.37 5.50,16.21 5.60,16.06 5.70,15.91 5.80,15.80 5.90,15.73 6.00,15.70 6.10,15.73 6.20,15.80 6.30,15.91 6.40,16.06 6.50,16.21 6.60,16.37 6.70,16.51 6.80,16.64 6.90,16.74 7.00,16.82 7.10,16.88 7.20,16.93 7.30,16.96 7.40,16.97 7.50,16.99 7.60,16.99 7.70,17.00 7.80,17.00 7.90,17.00 8.00,17.00 8.10,17.00 8.20,17.00 8.30,17.00 8.40,17.00 8.50,17.01 8.60,17.03 8.70,17.10 8.80,17.27 8.90,17.49 9.00,17.57 9.10,17.21 9.20,16.20 9.30,14.51 9.40,12.24 9.50,9.77 9.60,7.79 9.70,7.04 9.80,7.89 9.90,10.04 10.00,12.74 10.10,15.29 10.20,17.24 10.30,18.47 10.40,19.00 10.50,18.97 10.60,18.58 10.70,18.06 10.80,17.61 10.90,17.29 11.00,17.11 11.10,17.03 11.20,17.00 11.30,16.98 11.40,16.98 11.50,16.97 11.60,16.96 11.70,16.95 11.80,16.94 11.90,16.92 12.00,16.90 12.10,16.88 12.20,16.86 12.30,16.83 12.40,16.79 12.50,16.75 12.60,16.70 12.70,16.65 12.80,16.59 12.90,16.52 13.00,16.45 13.10,16.36 13.20,16.27 13.30,16.17 13.40,16.06 13.50,15.95 13.60,15.83 13.70,15.70 13.80,15.57 13.90,15.44 14.00,15.30 14.10,15.17 14.20,15.03 14.30,14.90 14.40,14.78 14.50,14.66 14.60,14.55 14.70,14.46 14.80,14.38 14.90,14.31 15.00,14.26 15.10,14.22 15.20,14.20 15.30,14.20 15.40,14.23 15.50,14.30 15.60,14.38 15.70,14.50 15.80,14.63 15.90,14.78 16.00,14.95 16.10,15.12 16.20,15.30 16.30,15.48 16.40,15.65 16.50,15.82 16.60,15.98 16.70,16.13 16.80,16.26 16.90,16.38 17.00,16.49 17.10,16.59 17.20,16.68 17.30,16.76 17.40,16.84 17.50,16.92 17.60,17.01 17.70,17.11 17.80,17.23 17.90,17.35 18.00,17.50 18.10,17.65 18.20,17.80 18.30,17.95 18.40,18.07 18.50,18.15 18.60,18.19 18.70,18.18 18.80,18.13 18.90,18.04 19.00,17.91 19.10,17.77 19.20,17.63 19.30,17.49 19.40,17.37 19.50,17.26 19.60,17.18 19.70,17.12 19.80,17.08 19.90,17.05 20.00,17.03 20.10,17.02 20.20,17.03 20.30,17.08 20.40,17.21 20.50,17.43 20.60,17.58 20.70,17.38 20.80,16.59 20.90,15.10 21.00,12.99 21.10,10.52 21.20,8.30 21.30,7.11 21.40,7.46 21.50,9.27 21.60,11.89 21.70,14.55 21.80,16.71 21.90,18.17 22.00,18.90 22.10,19.03 22.20,18.72 22.30,18.22 22.40,17.74 22.50,17.37 22.60,17.16 22.70,17.05 22.80,17.01 22.90,16.99 23.00,16.98 23.10,16.97 23.20,16.96 23.30,16.95 23.40,16.94 23.50,16.93 23.60,16.91 23.70,16.89 23.80,16.87 23.90,16.84 24.00,16.80 24.10,16.76 24.20,16.72 24.30,16.67 24.40,16.61 24.50,16.54 24.60,16.47 24.70,16.39 24.80,16.30 24.90,16.20 25.00,16.10 25.10,15.99 25.20,15.87 25.30,15.74 25.40,15.61 25.50,15.48 25.60,15.34 25.70,15.21 25.80,15.07 25.90,14.94 26.00,14.82 26.10,14.70 26.20,14.59 26.30,14.49 26.40,14.40 26.50,14.33 26.60,14.27 26.70,14.23 26.80,14.21 26.90,14.20 27.00,14.22 27.10,14.27 27.20,14.35 27.30,14.46 27.40,14.59 27.50,14.74 27.60,14.90 27.70,15.07 27.80,15.25 27.90,15.42 28.00,15.60 28.10,15.77 28.20,15.93 28.30,16.08 28.40,16.22 28.50,16.34 28.60,16.46 28.70,16.55 28.80,16.64 28.90,16.71 29.00,16.77 29.10,16.82 29.20,16.86 29.30,16.89 29.40,16.92 29.50,16.94 29.60,16.95 29.70,16.96 29.80,16.95 29.90,16.94 30.00,16.90 30.10,16.82 30.20,16.69 30.30,16.49 30.40,16.22 30.50,15.86 30.60,15.44 30.70,14.98 30.80,14.56 30.90,14.22 31.00,14.03 31.10,14.02 31.20,14.19 31.30,14.51 31.40,14.92 31.50,15.38 31.60,15.81 31.70,16.18 31.80,16.47 31.90,16.67 32.00,16.81 32.10,16.90 32.20,16.95 32.30,16.98 32.40,16.99 32.50,17.00 32.60,17.00 32.70,17.00 32.80,17.00 32.90,17.00 33.00,17.00 33.10,17.00 33.20,17.00 33.30,17.00 33.40,17.00 33.50,17.00 33.60,17.00 33.70,17.00 33.80,17.00 33.90,17.00 34.00,17.00 34.10,17.00 34.20,17.00 34.30,17.00 34.40,17.00 34.50,17.02 34.60,17.07 34.70,17.21 34.80,17.43 34.90,17.58 35.00,17.39 35.10,16.60 35.20,15.12 35.30,13.01 35.40,10.54 35.50,8.31 35.60,7.11 35.70,7.46 35.80,9.26 35.90,11.87 36.00,14.53 36.10,16.70 36.20,18.16 36.30,18.90 36.40,19.03 36.50,18.73 36.60,18.23 36.70,17.74 36.80,17.37 36.90,17.16 37.00,17.05 37.10,17.01 37.20,16.99 37.30,16.98 37.40,16.97 37.50,16.96 37.60,16.95 37.70,16.94 37.80,16.93 37.90,16.91 38.00,16.89 38.10,16.87 38.20,16.84 38.30,16.80 38.40,16.76 38.50,16.72 38.60,16.67 38.70,16.61 38.80,16.54 38.90,16.47 39.00,16.39 39.10,16.30 39.20,16.20 39.30,16.10 39.40,15.99 39.50,15.87 39.60,15.74 39.70,15.61 39.80,15.48 39.90,15.34 40.00,15.21 40.10,15.07 40.20,14.94 40.30,14.82 40.40,14.70 40.50,14.59 40.60,14.49 40.70,14.40 40.80,14.33 40.90,14.27 41.00,14.23 41.10,14.21 41.20,14.20 41.30,14.22 41.40,14.27 41.50,14.35 41.60,14.46 41.70,14.59 41.80,14.73 41.90,14.90 42.00,15.07 42.10,15.24 42.20,15.42 42.30,15.60 42.40,15.77 42.50,15.93 42.60,16.08 42.70,16.22 42.80,16.34 42.90,16.45 43.00,16.55 43.10,16.64 43.20,16.71 43.30,16.77 43.40,16.82 43.50,16.85 43.60,16.88 43.70,16.90 43.80,16.90 43.90,16.88 44.00,16.83 44.10,16.76 44.20,16.65 44.30,16.53 44.40,16.39 44.50,16.26 44.60,16.16 44.70,16.12 44.80,16.15 44.90,16.25 45.00,16.42 45.10,16.63 45.20,16.88 45.30,17.12 45.40,17.35 45.50,17.55 45.60,17.69 45.70,17.76 45.80,17.77 45.90,17.72 46.00,17.62 46.10,17.49 46.20,17.37 46.30,17.26 46.40,17.16 46.50,17.10 46.60,17.06 46.70,17.03 46.80,17.01 46.90,17.01 47.00,17.00 47.10,17.01 47.20,17.03 47.30,17.10 47.40,17.26 47.50,17.48 47.60,17.58 47.70,17.26 47.80,16.31 47.90,14.67 48.00,12.44 48.10,9.97 48.20,7.91 48.30,7.05 48.40,7.76 48.50,9.83 48.60,12.52 48.70,15.10 48.80,17.11 48.90,18.39 49.00,18.98 49.10,18.99 49.20,18.62 49.30,18.11 49.40,17.64 49.50,17.31 49.60,17.13 49.70,17.04 49.80,17.00 49.90,16.99 50.00,16.98 50.10,16.97 50.20,16.96 50.30,16.95 50.40,16.94 50.50,16.92 50.60,16.91 50.70,16.88 50.80,16.86 50.90,16.83 51.00,16.80 51.10,16.75 51.20,16.71 51.30,16.66 51.40,16.60 51.50,16.53 51.60,16.45 51.70,16.37 51.80,16.28 51.90,16.18 52.00,16.07 52.10,15.96 52.20,15.84 52.30,15.71 52.40,15.58 52.50,15.45 52.60,15.31 52.70,15.18 52.80,15.04 52.90,14.91 53.00,14.79 53.10,14.67 53.20,14.56 53.30,14.47 53.40,14.38 53.50,14.31 53.60,14.26 53.70,14.22 53.80,14.20 53.90,14.20 54.00,14.23 54.10,14.29 54.20,14.38 54.30,14.49 54.40,14.62 54.50,14.77 54.60,14.94 54.70,15.11 54.80,15.29 54.90,15.47 55.00,15.64 55.10,15.81 55.20,15.97 55.30,16.11 55.40,16.25 55.50,16.37 55.60,16.48 55.70,16.57 55.80,16.65 55.90,16.72 56.00,16.78 56.10,16.83 56.20,16.87 56.30,16.90 56.40,16.92 56.50,16.94 56.60,16.96 56.70,16.97 56.80,16.98 56.90,16.98 57.00,16.99 57.10,16.99 57.20,16.99 57.30,17.00 57.40,17.00 57.50,16.99 57.60,16.99 57.70,16.98 57.80,16.96 57.90,16.93 58.00,16.89 58.10,16.82 58.20,16.74 58.30,16.64 58.40,16.53 58.50,16.43 58.60,16.35 58.70,16.31 58.80,16.30 58.90,16.34 59.00,16.41 59.10,16.51 59.20,16.62 59.30,16.72 59.40,16.80 59.50,16.87 59.60,16.92 59.70,16.96 59.80,16.98 59.90,16.99 60.00,16.99 60.10,17.00 60.20,17.00 60.30,17.00 60.40,17.00 60.50,17.00 60.60,17.00 60.70,17.00 60.80,17.00 60.90,17.00 61.00,17.00 61.10,17.00 61.20,17.00 61.30,17.00 61.40,17.00 61.50,17.00 61.60,17.00 61.70,17.02 61.80,17.07 61.90,17.20 62.00,17.42 62.10,17.58 62.20,17.40 62.30,16.64 62.40,15.19 62.50,13.11 62.60,10.65 62.70,8.39 62.80,7.13 62.90,7.41 63.00,9.16 63.10,11.76 63.20,14.43 63.30,16.62 63.40,18.11 63.50,18.88 63.60,19.03 63.70,18.75 63.80,18.25 63.90,17.76 64.00,17.39 64.10,17.16 64.20,17.05 64.30,17.01 64.40,16.99 64.50,16.98 64.60,16.97 64.70,16.96 64.80,16.95 64.90,16.94 65.00,16.93 65.10,16.91 65.20,16.89 65.30,16.87 65.40,16.84 65.50,16.81 65.60,16.77 65.70,16.72 65.80,16.67 65.90,16.61 66.00,16.55 66.10,16.47 66.20,16.39 66.30,16.30 66.40,16.21 66.50,16.10 66.60,15.99 66.70,15.87 66.80,15.75 66.90,15.62 67.00,15.49 67.10,15.35 67.20,15.21 67.30,15.08 67.40,14.95 67.50,14.82 67.60,14.70 67.70,14.59 67.80,14.49 67.90,14.40 68.00,14.33 68.10,14.27 68.20,14.23 68.30,14.21 68.40,14.20 68.50,14.22 68.60,14.27 68.70,14.35 68.80,14.45 68.90,14.58 69.00,14.73 69.10,14.89 69.20,15.06 69.30,15.24 69.40,15.42 69.50,15.59 69.60,15.76 69.70,15.92 69.80,16.07 69.90,16.19 70.00,16.30 70.10,16.38 70.20,16.42 70.30,16.42 70.40,16.37 70.50,16.28 70.60,16.16 70.70,16.02 70.80,15.88 70.90,15.78 71.00,15.72 71.10,15.73 71.20,15.79 71.30,15.89 71.40,16.01 71.50,16.11 71.60,16.17 71.70,16.18 71.80,16.14 71.90,16.06 72.00,15.96 72.10,15.87 72.20,15.81 72.30,15.79 72.40,15.83 72.50,15.92 72.60,16.05 72.70,16.20 72.80,16.37 72.90,16.52 73.00,16.65 73.10,16.76 73.20,16.85 73.30,16.95 73.40,17.09 73.50,17.31 73.60,17.53 73.70,17.50 73.80,16.95 73.90,15.71 74.00,13.81 74.10,11.42 74.20,9.02 74.30,7.37 74.40,7.15 74.50,8.49 74.60,10.91 74.70,13.63 74.80,16.01 74.90,17.73 75.00,18.72 75.10,19.04 75.20,18.87 75.30,18.41 75.40,17.90 75.50,17.48 75.60,17.22 75.70,17.08 75.80,17.02 75.90,16.99 76.00,16.98 76.10,16.97 76.20,16.97 76.30,16.96 76.40,16.95 76.50,16.93 76.60,16.92 76.70,16.90 76.80,16.87 76.90,16.85 77.00,16.82 77.10,16.78 77.20,16.74 77.30,16.69 77.40,16.63 77.50,16.57 77.60,16.50 77.70,16.42 77.80,16.33 77.90,16.24 78.00,16.14 78.10,16.03 78.20,15.91 78.30,15.79 78.40,15.66 78.50,15.53 78.60,15.39 78.70,15.26 78.80,15.12 78.90,14.99 79.00,14.86 79.10,14.74 79.20,14.62 79.30,14.52 79.40,14.43 79.50,14.35 79.60,14.29 79.70,14.24 79.80,14.21 79.90,14.20 80.00,14.21 80.10,14.25 80.20,14.32 80.30,14.42 80.40,14.54 80.50,14.68 80.60,14.83 80.70,15.00 80.80,15.17 80.90,15.34 81.00,15.50 81.10,15.65 81.20,15.77 81.30,15.87 81.40,15.94 81.50,15.97 81.60,15.96 81.70,15.92 81.80,15.86 81.90,15.78 82.00,15.70 82.10,15.63 82.20,15.58 82.30,15.58 82.40,15.62 82.50,15.71 82.60,15.83 82.70,15.98 82.80,16.14 82.90,16.31 83.00,16.46 83.10,16.60 83.20,16.71 83.30,16.80 83.40,16.87 83.50,16.92 83.60,16.95 83.70,16.97 83.80,16.98 83.90,16.99 84.00,16.99 84.10,17.00 84.20,17.00 84.30,17.00 84.40,17.00 84.50,17.00 84.60,17.00 84.70,17.00 84.80,17.00 84.90,17.02 85.00,17.08 85.10,17.22 85.20,17.44 85.30,17.58 85.40,17.36 85.50,16.53 85.60,15.01 85.70,12.87 85.80,10.39 85.90,8.21 86.00,7.09 86.10,7.53 86.20,9.40 86.30,12.04 86.40,14.68 86.50,16.81 86.60,18.22 86.70,18.92 86.80,19.02 86.90,18.70 87.00,18.20 87.10,17.71 87.20,17.36 87.30,17.15 87.40,17.05 87.50,17.00 87.60,16.99 87.70,16.98 87.80,16.97 87.90,16.96 88.00,16.95 88.10,16.94 88.20,16.93 88.30,16.91 88.40,16.89 88.50,16.86 88.60,16.84 88.70,16.80 88.80,16.76 88.90,16.72 89.00,16.66 89.10,16.61 89.20,16.54 89.30,16.47 89.40,16.38 89.50,16.29 89.60,16.20 89.70,16.09 89.80,15.98 89.90,15.86 90.00,15.73 90.10,15.61 90.20,15.47 90.30,15.34 90.40,15.20 90.50,15.07 90.60,14.94 90.70,14.81 90.80,14.69 90.90,14.58 91.00,14.48 91.10,14.40 91.20,14.32 91.30,14.27 91.40,14.23 91.50,14.21 91.60,14.20 91.70,14.22 91.80,14.28 91.90,14.36 92.00,14.47 92.10,14.60 92.20,14.74 92.30,14.91 92.40,15.08 92.50,15.26 92.60,15.43 92.70,15.61 92.80,15.78 92.90,15.94 93.00,16.09 93.10,16.23 93.20,16.35 93.30,16.46 93.40,16.56 93.50,16.65 93.60,16.73 93.70,16.80 93.80,16.86 93.90,16.93 94.00,17.00 94.10,17.09 94.20,17.19 94.30,17.30 94.40,17.43 94.50,17.58 94.60,17.73 94.70,17.88 94.80,18.01 94.90,18.11 95.00,18.18 95.10,18.20 95.20,18.17 95.30,18.10 95.40,17.99 95.50,17.85 95.60,17.71 95.70,17.57 95.80,17.43 95.90,17.32 96.00,17.23 96.10,17.15 96.20,17.10 96.30,17.06 96.40,17.04 96.50,17.02 96.60,17.02 96.70,17.04 96.80,17.12 96.90,17.30 97.00,17.52 97.10,17.55 97.20,17.12 97.30,16.02 97.40,14.25 97.50,11.93 97.60,9.48 97.70,7.61 97.80,7.06 97.90,8.10 98.00,10.36 98.10,13.09 98.20,15.57 98.30,17.44 98.40,18.57 98.50,19.02 98.60,18.93 98.70,18.52 98.80,18.00 98.90,17.56 99.00,17.26 99.10,17.10 99.20,17.03 99.30,17.00 99.40,16.98 99.50,16.98 99.60,16.97 99.70,16.96 99.80,16.95 99.90,16.94 100.00,16.92 100.10,16.90 100.20,16.88 100.30,16.85 100.40,16.82 100.50,16.79 100.60,16.75 100.70,16.70 100.80,16.64 100.90,16.58 101.00,16.51 101.10,16.44 101.20,16.35 101.30,16.26 101.40,16.16 101.50,16.05 101.60,15.93 101.70,15.81 101.80,15.69 101.90,15.55 102.00,15.42 102.10,15.28 102.20,15.15 102.30,15.02 102.40,14.89 102.50,14.76 102.60,14.65 102.70,14.54 102.80,14.45 102.90,14.37 103.00,14.30 103.10,14.25 103.20,14.22 103.30,14.20 103.40,14.21 103.50,14.24 103.60,14.30 103.70,14.40 103.80,14.51 103.90,14.65 104.00,14.80 104.10,14.97 104.20,15.15 104.30,15.32 104.40,15.50 104.50,15.68 104.60,15.84 104.70,16.00 104.80,16.14 104.90,16.26 105.00,16.36 105.10,16.42 105.20,16.44 105.30,16.40 105.40,16.28 105.50,16.08 105.60,15.78 105.70,15.41 105.80,14.99 105.90,14.57 106.00,14.23 106.10,14.02 106.20,13.97 106.30,14.11 106.40,14.41 106.50,14.82 106.60,15.27 106.70,15.71 106.80,16.10 106.90,16.41 107.00,16.63 107.10,16.79 107.20,16.88 107.30,16.94 107.40,16.97 107.50,16.99 107.60,16.99 107.70,17.00 107.80,17.00 107.90,17.00 108.00,17.00 108.10,17.00 108.20,17.00 108.30,17.00 108.40,17.00 108.50,17.00 108.60,17.00 108.70,17.00 108.80,17.00 108.90,17.00 109.00,17.00 109.10,17.00 109.20,17.00 109.30,17.00 109.40,17.00 109.50,17.00 109.60,17.01 109.70,17.05 109.80,17.17 109.90,17.38 110.00,17.56 110.10,17.47 110.20,16.83 110.30,15.50 110.40,13.52 110.50,11.09 110.60,8.74 110.70,7.25 110.80,7.24 110.90,8.76 111.00,11.27 111.10,13.98 111.20,16.28 111.30,17.90 111.40,18.79 111.50,19.04 111.60,18.82 111.70,18.34 111.80,17.84 111.90,17.44 112.00,17.19 112.10,17.07 112.20,17.01 112.30,16.99 112.40,16.98 112.50,16.97 112.60,16.97 112.70,16.96 112.80,16.94 112.90,16.93 113.00,16.91 113.10,16.90 113.20,16.87 113.30,16.84 113.40,16.81 113.50,16.77 113.60,16.73 113.70,16.68 113.80,16.62 113.90,16.56 114.00,16.49 114.10,16.41 114.20,16.32 114.30,16.23 114.40,16.12 114.50,16.01 114.60,15.89 114.70,15.77 114.80,15.64 114.90,15.51 115.00,15.37 115.10,15.24 115.20,15.10 115.30,14.97 115.40,14.84 115.50,14.72 115.60,14.61 115.70,14.51 115.80,14.42 115.90,14.34 116.00,14.28 116.10,14.24 116.20,14.21 116.30,14.20 116.40,14.21 116.50,14.26 116.60,14.33 116.70,14.43 116.80,14.56 116.90,14.70 117.00,14.86 117.10,15.03 117.20,15.21 117.30,15.38 117.40,15.56 117.50,15.73 117.60,15.90 117.70,16.05 117.80,16.19 117.90,16.32 118.00,16.43 118.10,16.53 118.20,16.62 118.30,16.69 118.40,16.75 118.50,16.81 118.60,16.85 118.70,16.88 118.80,16.91 118.90,16.93 119.00,16.95 119.10,16.96 119.20,16.97 119.30,16.98 119.40,16.99 119.50,16.99 119.60,16.99 119.70,17.00 119.80,17.00 119.90,17.00 120.00,17.00 120.10,16.99 120.20,16.99 120.30,16.97 120.40,16.95 120.50,16.90 120.60,16.83 120.70,16.74 120.80,16.62 120.90,16.47 121.00,16.33 121.10,16.21 121.20,16.14 121.30,16.13 121.40,16.19 121.50,16.32 121.60,16.51 121.70,16.74 121.80,16.99 121.90,17.23 122.00,17.45 122.10,17.62 122.20,17.73 122.30,17.78 122.40,17.75 122.50,17.68 122.60,17.56 122.70,17.44 122.80,17.32 122.90,17.21 123.00,17.13 123.10,17.08 123.20,17.04 123.30,17.02 123.40,17.01 123.50,17.00 123.60,17.00 123.70,17.01 123.80,17.05 123.90,17.15 124.00,17.35 124.10,17.55 124.20,17.50 124.30,16.92 124.40,15.66 124.50,13.74 124.60,11.34 124.70,8.95 124.80,7.34 124.90,7.17 125.00,8.56 125.10,11.00 125.20,13.72 125.30,16.08 125.40,17.77 125.50,18.74 125.60,19.04 125.70,18.86 125.80,18.39 125.90,17.88 126.00,17.47 126.10,17.21 126.20,17.08 126.30,17.02 126.40,16.99 126.50,16.98 126.60,16.97 126.70,16.97 126.80,16.96 126.90,16.95 127.00,16.93 127.10,16.92 127.20,16.90 127.30,16.87 127.40,16.85 127.50,16.81 127.60,16.78 127.70,16.73 127.80,16.69 127.90,16.63 128.00,16.57 128.10,16.50 128.20,16.42 128.30,16.33 128.40,16.23 128.50,16.13 128.60,16.02 128.70,15.91 128.80,15.78 128.90,15.65 129.00,15.52 129.10,15.39 129.20,15.25 129.30,15.12 129.40,14.98 129.50,14.86 129.60,14.73 129.70,14.62 129.80,14.52 129.90,14.43 130.00,14.35 130.10,14.29 130.20,14.24 130.30,14.21 130.40,14.20 130.50,14.21 130.60,14.25 130.70,14.32 130.80,14.42 130.90,14.54 131.00,14.68 131.10,14.84 131.20,15.00 131.30,15.17 131.40,15.33 131.50,15.48 131.60,15.61 131.70,15.72 131.80,15.79 131.90,15.84 132.00,15.86 132.10,15.87 132.20,15.89 132.30,15.92 132.40,15.99 132.50,16.08 132.60,16.20 132.70,16.33 132.80,16.48 132.90,16.61 133.00,16.72 133.10,16.81 133.20,16.88 133.30,16.92 133.40,16.95 133.50,16.97 133.60,16.98 133.70,16.99 133.80,16.99 133.90,17.00 134.00,17.00 134.10,17.00 134.20,17.00 134.30,17.00 134.40,17.00 134.50,17.00 134.60,17.00 134.70,17.00 134.80,17.00 134.90,17.00 135.00,17.00 135.10,17.00 135.20,17.00 135.30,17.01 135.40,17.05 135.50,17.16 135.60,17.37 135.70,17.56 135.80,17.48 135.90,16.86 136.00,15.56 136.10,13.59 136.20,11.17 136.30,8.81 136.40,7.28 136.50,7.22 136.60,8.69 136.70,11.18 136.80,13.89 136.90,16.21 137.00,17.86 137.10,18.78 137.20,19.05 137.30,18.83 137.40,18.36 137.50,17.85 137.60,17.45 137.70,17.20 137.80,17.07 137.90,17.01 138.00,16.99 138.10,16.98 138.20,16.97 138.30,16.97 138.40,16.96 138.50,16.95 138.60,16.93 138.70,16.92 138.80,16.90 138.90,16.87 139.00,16.84 139.10,16.81 139.20,16.78 139.30,16.73 139.40,16.68 139.50,16.63 139.60,16.56 139.70,16.49 139.80,16.41 139.90,16.32 140.00,16.23 140.10,16.13 140.20,16.02 140.30,15.90 140.40,15.77 140.50,15.65 140.60,15.51 140.70,15.38 140.80,15.24 140.90,15.11 141.00,14.98 141.10,14.85 141.20,14.73 141.30,14.61 141.40,14.51 141.50,14.42 141.60,14.34 141.70,14.28 141.80,14.24 141.90,14.21 142.00,14.20 142.10,14.21 142.20,14.26 142.30,14.33 142.40,14.43 142.50,14.55 142.60,14.70 142.70,14.85 142.80,15.02 142.90,15.20 143.00,15.38 143.10,15.56 143.20,15.73 143.30,15.89 143.40,16.04 143.50,16.19 143.60,16.31 143.70,16.43 143.80,16.53 143.90,16.62 144.00,16.69 144.10,16.75 144.20,16.80 144.30,16.85 144.40,16.88 144.50,16.91 144.60,16.93 144.70,16.95 144.80,16.96 144.90,16.97 145.00,16.98 145.10,16.99 145.20,16.99 145.30,16.99 145.40,17.00 145.50,17.00 145.60,17.00 145.70,17.00 145.80,17.00 145.90,17.00 146.00,17.00 146.10,17.00 146.20,17.00 146.30,17.00 146.40,17.00 146.50,17.00 146.60,17.00 146.70,17.00 146.80,17.00 146.90,17.00 147.00,17.00 147.10,17.00 147.20,17.00 147.30,17.00 147.40,17.00 147.50,17.00 147.60,17.00 147.70,17.00 147.80,17.00 147.90,17.00 148.00,17.00 148.10,17.00 148.20,17.00 148.30,17.00 148.40,17.00 148.50,17.00 148.60,17.00 148.70,17.00 148.80,17.00 148.90,17.00 149.00,17.00 149.10,17.00 149.20,17.00 149.30,17.00 149.40,17.00 149.50,17.00 149.60,17.00 149.70,17.00 149.80,17.00 149.90,17.00" fill="none" stroke="#1b1b1b" stroke-width="0.42" stroke-linejoin="round" stroke-linecap="round"/>
<text x="1.5" y="4.2" font-family="Arial,Helvetica,sans-serif" font-size="3.40" font-weight="700" fill="#7a1010">II</text>
<text x="148.5" y="30.5" text-anchor="end" font-family="Arial,Helvetica,sans-serif" font-size="2.30" fill="#8a5a5e">Schematic illustration · 25 mm/s · 10 mm/mV · ecgmeans.com</text>
</svg>