<svg xmlns="http://www.w3.org/2000/svg" viewBox="0 0 150 32" width="600" height="126" role="img" aria-label="QS complexes (no R wave) in V1 and V2 with normal R waves in V3 and V4">
<title>QS complexes (no R wave) in V1 and V2 with normal R waves in V3 and V4</title>
<rect width="150" height="32" fill="#fff8f8"/>
<path d="M1 0V32M2 0V32M3 0V32M4 0V32M6 0V32M7 0V32M8 0V32M9 0V32M11 0V32M12 0V32M13 0V32M14 0V32M16 0V32M17 0V32M18 0V32M19 0V32M21 0V32M22 0V32M23 0V32M24 0V32M26 0V32M27 0V32M28 0V32M29 0V32M31 0V32M32 0V32M33 0V32M34 0V32M36 0V32M37 0V32M38 0V32M39 0V32M41 0V32M42 0V32M43 0V32M44 0V32M46 0V32M47 0V32M48 0V32M49 0V32M51 0V32M52 0V32M53 0V32M54 0V32M56 0V32M57 0V32M58 0V32M59 0V32M61 0V32M62 0V32M63 0V32M64 0V32M66 0V32M67 0V32M68 0V32M69 0V32M71 0V32M72 0V32M73 0V32M74 0V32M76 0V32M77 0V32M78 0V32M79 0V32M81 0V32M82 0V32M83 0V32M84 0V32M86 0V32M87 0V32M88 0V32M89 0V32M91 0V32M92 0V32M93 0V32M94 0V32M96 0V32M97 0V32M98 0V32M99 0V32M101 0V32M102 0V32M103 0V32M104 0V32M106 0V32M107 0V32M108 0V32M109 0V32M111 0V32M112 0V32M113 0V32M114 0V32M116 0V32M117 0V32M118 0V32M119 0V32M121 0V32M122 0V32M123 0V32M124 0V32M126 0V32M127 0V32M128 0V32M129 0V32M131 0V32M132 0V32M133 0V32M134 0V32M136 0V32M137 0V32M138 0V32M139 0V32M141 0V32M142 0V32M143 0V32M144 0V32M146 0V32M147 0V32M148 0V32M149 0V32M0 1H150M0 2H150M0 3H150M0 4H150M0 6H150M0 7H150M0 8H150M0 9H150M0 11H150M0 12H150M0 13H150M0 14H150M0 16H150M0 17H150M0 18H150M0 19H150M0 21H150M0 22H150M0 23H150M0 24H150M0 26H150M0 27H150M0 28H150M0 29H150M0 31H150" stroke="#f6c9cd" stroke-width="0.1"/>
<path d="M0 0V32M5 0V32M10 0V32M15 0V32M20 0V32M25 0V32M30 0V32M35 0V32M40 0V32M45 0V32M50 0V32M55 0V32M60 0V32M65 0V32M70 0V32M75 0V32M80 0V32M85 0V32M90 0V32M95 0V32M100 0V32M105 0V32M110 0V32M115 0V32M120 0V32M125 0V32M130 0V32M135 0V32M140 0V32M145 0V32M150 0V32M0 0H150M0 5H150M0 10H150M0 15H150M0 20H150M0 25H150M0 30H150" stroke="#ec9ea6" stroke-width="0.25"/>
<polyline points="0.00,17.00 0.10,17.00 0.20,17.00 0.30,17.00 0.40,17.00 0.50,17.00 0.60,17.00 0.70,17.00 0.80,17.00 0.90,17.00 1.00,17.00 1.10,17.00 1.20,17.00 1.30,17.00 1.40,17.00 1.50,17.00 1.60,17.00 1.70,17.00 1.80,17.00 1.90,17.00 2.00,17.00 2.10,17.00 2.20,17.00 2.30,17.00 2.40,17.00 2.50,17.00 2.60,17.00 2.70,17.00 2.80,17.00 2.90,17.00 3.00,17.00 3.10,16.99 3.20,16.99 3.30,16.98 3.40,16.97 3.50,16.94 3.60,16.91 3.70,16.86 3.80,16.79 3.90,16.69 4.00,16.58 4.10,16.44 4.20,16.29 4.30,16.13 4.40,15.98 4.50,15.85 4.60,15.76 4.70,15.71 4.80,15.71 4.90,15.76 5.00,15.85 5.10,15.98 5.20,16.13 5.30,16.29 5.40,16.44 5.50,16.58 5.60,16.69 5.70,16.79 5.80,16.86 5.90,16.91 6.00,16.94 6.10,16.97 6.20,16.98 6.30,16.99 6.40,16.99 6.50,17.00 6.60,17.00 6.70,17.00 6.80,17.00 6.90,17.00 7.00,17.00 7.10,17.01 7.20,17.02 7.30,17.04 7.40,17.08 7.50,17.17 7.60,17.34 7.70,17.62 7.80,18.07 7.90,18.74 8.00,19.66 8.10,20.80 8.20,22.12 8.30,23.47 8.40,24.68 8.50,25.57 8.60,25.98 8.70,25.84 8.80,25.18 8.90,24.11 9.00,22.80 9.10,21.45 9.20,20.20 9.30,19.17 9.40,18.38 9.50,17.82 9.60,17.46 9.70,17.24 9.80,17.12 9.90,17.06 10.00,17.02 10.10,17.01 10.20,17.00 10.30,17.00 10.40,16.99 10.50,16.99 10.60,16.99 10.70,16.99 10.80,16.98 10.90,16.98 11.00,16.97 11.10,16.97 11.20,16.96 11.30,16.95 11.40,16.94 11.50,16.93 11.60,16.92 11.70,16.90 11.80,16.88 11.90,16.86 12.00,16.83 12.10,16.81 12.20,16.77 12.30,16.74 12.40,16.70 12.50,16.66 12.60,16.61 12.70,16.56 12.80,16.50 12.90,16.44 13.00,16.38 13.10,16.31 13.20,16.24 13.30,16.16 13.40,16.09 13.50,16.01 13.60,15.93 13.70,15.85 13.80,15.77 13.90,15.69 14.00,15.62 14.10,15.55 14.20,15.48 14.30,15.42 14.40,15.36 14.50,15.32 14.60,15.27 14.70,15.24 14.80,15.22 14.90,15.20 15.00,15.20 15.10,15.21 15.20,15.23 15.30,15.26 15.40,15.31 15.50,15.37 15.60,15.44 15.70,15.52 15.80,15.60 15.90,15.69 16.00,15.79 16.10,15.88 16.20,15.98 16.30,16.08 16.40,16.17 16.50,16.26 16.60,16.35 16.70,16.43 16.80,16.50 16.90,16.57 17.00,16.63 17.10,16.68 17.20,16.73 17.30,16.78 17.40,16.82 17.50,16.85 17.60,16.88 17.70,16.90 17.80,16.92 17.90,16.94 18.00,16.95 18.10,16.96 18.20,16.97 18.30,16.98 18.40,16.98 18.50,16.99 18.60,16.99 18.70,16.99 18.80,16.99 18.90,17.00 19.00,17.00 19.10,17.00 19.20,17.00 19.30,17.00 19.40,17.00 19.50,17.00 19.60,17.00 19.70,17.00 19.80,17.00 19.90,17.00 20.00,17.00 20.10,17.00 20.20,17.00 20.30,17.00 20.40,17.00 20.50,17.00 20.60,17.00 20.70,17.00 20.80,17.00 20.90,17.00 21.00,17.00 21.10,17.00 21.20,17.00 21.30,17.00 21.40,17.00 21.50,17.00 21.60,17.00 21.70,17.00 21.80,17.00 21.90,17.00 22.00,17.00 22.10,17.00 22.20,17.00 22.30,17.00 22.40,17.00 22.50,17.00 22.60,17.00 22.70,17.00 22.80,17.00 22.90,17.00 23.00,17.00 23.10,17.00 23.20,17.00 23.30,17.00 23.40,17.00 23.50,17.00 23.60,17.00 23.70,17.00 23.80,17.00 23.90,17.00 24.00,17.00 24.10,17.00 24.20,17.00 24.30,17.00 24.40,17.00 24.50,17.00 24.60,17.00 24.70,17.00 24.80,17.00 24.90,17.00 25.00,17.00 25.10,17.00 25.20,17.00 25.30,17.00 25.40,17.00 25.50,17.00 25.60,17.00 25.70,17.00 25.80,17.00 25.90,17.00 26.00,17.00 26.10,17.00 26.20,17.00 26.30,17.00 26.40,17.00 26.50,17.00 26.60,17.00 26.70,17.00 26.80,17.00 26.90,17.00 27.00,17.00 27.10,17.00 27.20,17.00 27.30,17.00 27.40,17.00 27.50,17.00 27.60,17.00 27.70,17.00 27.80,17.00 27.90,17.00 28.00,17.00 28.10,17.00 28.20,17.00 28.30,17.00 28.40,17.00 28.50,17.00 28.60,17.00 28.70,17.00 28.80,17.00 28.90,17.00 29.00,17.00 29.10,17.00 29.20,17.00 29.30,17.00 29.40,17.00 29.50,17.00 29.60,17.00 29.70,17.00 29.80,17.00 29.90,17.00 30.00,17.00 30.10,17.00 30.20,17.00 30.30,17.00 30.40,17.00 30.50,17.00 30.60,17.00 30.70,17.00 30.80,17.00 30.90,17.00 31.00,17.00 31.10,17.00 31.20,17.00 31.30,17.00 31.40,17.00 31.50,17.00 31.60,17.00 31.70,17.00 31.80,17.00 31.90,17.00 32.00,17.00 32.10,17.00 32.20,17.00 32.30,17.00 32.40,17.00 32.50,17.00 32.60,17.00 32.70,17.00 32.80,17.00 32.90,17.00 33.00,17.00 33.10,17.00 33.20,17.00 33.30,17.00 33.40,17.00 33.50,17.00 33.60,17.00 33.70,17.00 33.80,17.00 33.90,17.00 34.00,17.00 34.10,17.00 34.20,17.00 34.30,17.00 34.40,17.00 34.50,17.00 34.60,17.00 34.70,17.00 34.80,17.00 34.90,17.00 35.00,17.00 35.10,17.00 35.20,17.00 35.30,17.00 35.40,17.00 35.50,17.00 35.60,17.00 35.70,17.00 35.80,17.00 35.90,17.00 36.00,17.00 36.10,17.00 36.20,17.00 36.30,17.00 36.40,17.00 36.50,17.00 36.60,17.00 36.70,17.00 36.80,17.00 36.90,17.00 37.00,17.00 37.10,17.00 37.20,17.00 37.30,17.00 37.40,17.00" fill="none" stroke="#1b1b1b" stroke-width="0.42" stroke-linejoin="round" stroke-linecap="round"/>
<text x="1.5" y="4.2" font-family="Arial,Helvetica,sans-serif" font-size="3.40" font-weight="700" fill="#7a1010">V1</text>

<polyline points="37.50,17.00 37.60,17.00 37.70,17.00 37.80,17.00 37.90,17.00 38.00,17.00 38.10,17.00 38.20,17.00 38.30,17.00 38.40,17.00 38.50,17.00 38.60,17.00 38.70,17.00 38.80,17.00 38.90,17.00 39.00,17.00 39.10,17.00 39.20,17.00 39.30,17.00 39.40,17.00 39.50,17.00 39.60,17.00 39.70,17.00 39.80,17.00 39.90,17.00 40.00,17.00 40.10,17.00 40.20,17.00 40.30,17.00 40.40,17.00 40.50,17.00 40.60,16.99 40.70,16.99 40.80,16.98 40.90,16.97 41.00,16.94 41.10,16.91 41.20,16.86 41.30,16.79 41.40,16.69 41.50,16.58 41.60,16.44 41.70,16.29 41.80,16.13 41.90,15.98 42.00,15.85 42.10,15.76 42.20,15.71 42.30,15.71 42.40,15.76 42.50,15.85 42.60,15.98 42.70,16.13 42.80,16.29 42.90,16.44 43.00,16.58 43.10,16.69 43.20,16.79 43.30,16.86 43.40,16.91 43.50,16.94 43.60,16.97 43.70,16.98 43.80,16.99 43.90,16.99 44.00,17.00 44.10,17.00 44.20,17.00 44.30,17.00 44.40,17.00 44.50,17.00 44.60,17.01 44.70,17.02 44.80,17.04 44.90,17.08 45.00,17.17 45.10,17.34 45.20,17.62 45.30,18.07 45.40,18.74 45.50,19.66 45.60,20.80 45.70,22.12 45.80,23.47 45.90,24.68 46.00,25.57 46.10,25.98 46.20,25.84 46.30,25.18 46.40,24.11 46.50,22.80 46.60,21.45 46.70,20.20 46.80,19.17 46.90,18.38 47.00,17.82 47.10,17.46 47.20,17.24 47.30,17.12 47.40,17.06 47.50,17.02 47.60,17.01 47.70,17.00 47.80,17.00 47.90,16.99 48.00,16.99 48.10,16.99 48.20,16.99 48.30,16.98 48.40,16.98 48.50,16.97 48.60,16.97 48.70,16.96 48.80,16.95 48.90,16.94 49.00,16.93 49.10,16.92 49.20,16.90 49.30,16.88 49.40,16.86 49.50,16.83 49.60,16.81 49.70,16.77 49.80,16.74 49.90,16.70 50.00,16.66 50.10,16.61 50.20,16.56 50.30,16.50 50.40,16.44 50.50,16.38 50.60,16.31 50.70,16.24 50.80,16.16 50.90,16.09 51.00,16.01 51.10,15.93 51.20,15.85 51.30,15.77 51.40,15.69 51.50,15.62 51.60,15.55 51.70,15.48 51.80,15.42 51.90,15.36 52.00,15.32 52.10,15.27 52.20,15.24 52.30,15.22 52.40,15.20 52.50,15.20 52.60,15.21 52.70,15.23 52.80,15.26 52.90,15.31 53.00,15.37 53.10,15.44 53.20,15.52 53.30,15.60 53.40,15.69 53.50,15.79 53.60,15.88 53.70,15.98 53.80,16.08 53.90,16.17 54.00,16.26 54.10,16.35 54.20,16.43 54.30,16.50 54.40,16.57 54.50,16.63 54.60,16.68 54.70,16.73 54.80,16.78 54.90,16.82 55.00,16.85 55.10,16.88 55.20,16.90 55.30,16.92 55.40,16.94 55.50,16.95 55.60,16.96 55.70,16.97 55.80,16.98 55.90,16.98 56.00,16.99 56.10,16.99 56.20,16.99 56.30,16.99 56.40,17.00 56.50,17.00 56.60,17.00 56.70,17.00 56.80,17.00 56.90,17.00 57.00,17.00 57.10,17.00 57.20,17.00 57.30,17.00 57.40,17.00 57.50,17.00 57.60,17.00 57.70,17.00 57.80,17.00 57.90,17.00 58.00,17.00 58.10,17.00 58.20,17.00 58.30,17.00 58.40,17.00 58.50,17.00 58.60,17.00 58.70,17.00 58.80,17.00 58.90,17.00 59.00,17.00 59.10,17.00 59.20,17.00 59.30,17.00 59.40,17.00 59.50,17.00 59.60,17.00 59.70,17.00 59.80,17.00 59.90,17.00 60.00,17.00 60.10,17.00 60.20,17.00 60.30,17.00 60.40,17.00 60.50,17.00 60.60,17.00 60.70,17.00 60.80,17.00 60.90,17.00 61.00,17.00 61.10,17.00 61.20,17.00 61.30,17.00 61.40,17.00 61.50,17.00 61.60,17.00 61.70,17.00 61.80,17.00 61.90,17.00 62.00,17.00 62.10,17.00 62.20,17.00 62.30,17.00 62.40,17.00 62.50,17.00 62.60,17.00 62.70,17.00 62.80,17.00 62.90,17.00 63.00,17.00 63.10,17.00 63.20,17.00 63.30,17.00 63.40,17.00 63.50,17.00 63.60,17.00 63.70,17.00 63.80,17.00 63.90,17.00 64.00,17.00 64.10,17.00 64.20,17.00 64.30,17.00 64.40,17.00 64.50,17.00 64.60,17.00 64.70,17.00 64.80,17.00 64.90,17.00 65.00,17.00 65.10,17.00 65.20,17.00 65.30,17.00 65.40,17.00 65.50,17.00 65.60,17.00 65.70,17.00 65.80,17.00 65.90,17.00 66.00,17.00 66.10,17.00 66.20,17.00 66.30,17.00 66.40,17.00 66.50,17.00 66.60,17.00 66.70,17.00 66.80,17.00 66.90,17.00 67.00,17.00 67.10,17.00 67.20,17.00 67.30,17.00 67.40,17.00 67.50,17.00 67.60,17.00 67.70,17.00 67.80,17.00 67.90,17.00 68.00,17.00 68.10,17.00 68.20,17.00 68.30,17.00 68.40,17.00 68.50,17.00 68.60,17.00 68.70,17.00 68.80,17.00 68.90,17.00 69.00,17.00 69.10,17.00 69.20,17.00 69.30,17.00 69.40,17.00 69.50,17.00 69.60,17.00 69.70,17.00 69.80,17.00 69.90,17.00 70.00,17.00 70.10,17.00 70.20,17.00 70.30,17.00 70.40,17.00 70.50,17.00 70.60,17.00 70.70,17.00 70.80,17.00 70.90,17.00 71.00,17.00 71.10,17.00 71.20,17.00 71.30,17.00 71.40,17.00 71.50,17.00 71.60,17.00 71.70,17.00 71.80,17.00 71.90,17.00 72.00,17.00 72.10,17.00 72.20,17.00 72.30,17.00 72.40,17.00 72.50,17.00 72.60,17.00 72.70,17.00 72.80,17.00 72.90,17.00 73.00,17.00 73.10,17.00 73.20,17.00 73.30,17.00 73.40,17.00 73.50,17.00 73.60,17.00 73.70,17.00 73.80,17.00 73.90,17.00 74.00,17.00 74.10,17.00 74.20,17.00 74.30,17.00 74.40,17.00 74.50,17.00 74.60,17.00 74.70,17.00 74.80,17.00 74.90,17.00" fill="none" stroke="#1b1b1b" stroke-width="0.42" stroke-linejoin="round" stroke-linecap="round"/>
<text x="39.0" y="4.2" font-family="Arial,Helvetica,sans-serif" font-size="3.40" font-weight="700" fill="#7a1010">V2</text>
<path d="M37.5 1.0V27.0" stroke="#7a1010" stroke-width="0.3"/>
<polyline points="75.00,17.00 75.10,17.00 75.20,17.00 75.30,17.00 75.40,17.00 75.50,17.00 75.60,17.00 75.70,17.00 75.80,17.00 75.90,17.00 76.00,17.00 76.10,17.00 76.20,17.00 76.30,17.00 76.40,17.00 76.50,17.00 76.60,17.00 76.70,17.00 76.80,17.00 76.90,17.00 77.00,17.00 77.10,17.00 77.20,17.00 77.30,17.00 77.40,17.00 77.50,17.00 77.60,17.00 77.70,17.00 77.80,17.00 77.90,17.00 78.00,17.00 78.10,16.99 78.20,16.99 78.30,16.98 78.40,16.97 78.50,16.94 78.60,16.91 78.70,16.86 78.80,16.79 78.90,16.69 79.00,16.58 79.10,16.44 79.20,16.29 79.30,16.13 79.40,15.98 79.50,15.85 79.60,15.76 79.70,15.71 79.80,15.71 79.90,15.76 80.00,15.85 80.10,15.98 80.20,16.13 80.30,16.29 80.40,16.44 80.50,16.58 80.60,16.69 80.70,16.79 80.80,16.86 80.90,16.91 81.00,16.94 81.10,16.97 81.20,16.98 81.30,16.99 81.40,16.99 81.50,17.00 81.60,17.00 81.70,17.00 81.80,17.00 81.90,17.00 82.00,17.00 82.10,17.00 82.20,17.00 82.30,17.00 82.40,16.99 82.50,16.96 82.60,16.89 82.70,16.71 82.80,16.33 82.90,15.65 83.00,14.64 83.10,13.38 83.20,12.15 83.30,11.36 83.40,11.35 83.50,12.27 83.60,14.00 83.70,16.22 83.80,18.52 83.90,20.56 84.00,22.05 84.10,22.79 84.20,22.75 84.30,22.04 84.40,20.94 84.50,19.75 84.60,18.71 84.70,17.96 84.80,17.48 84.90,17.21 85.00,17.08 85.10,17.03 85.20,17.00 85.30,16.99 85.40,16.99 85.50,16.99 85.60,16.98 85.70,16.98 85.80,16.97 85.90,16.96 86.00,16.96 86.10,16.95 86.20,16.93 86.30,16.92 86.40,16.90 86.50,16.88 86.60,16.86 86.70,16.83 86.80,16.80 86.90,16.76 87.00,16.72 87.10,16.68 87.20,16.62 87.30,16.56 87.40,16.50 87.50,16.43 87.60,16.35 87.70,16.26 87.80,16.17 87.90,16.07 88.00,15.96 88.10,15.85 88.20,15.73 88.30,15.60 88.40,15.48 88.50,15.35 88.60,15.21 88.70,15.08 88.80,14.95 88.90,14.82 89.00,14.70 89.10,14.58 89.20,14.47 89.30,14.36 89.40,14.27 89.50,14.19 89.60,14.12 89.70,14.07 89.80,14.03 89.90,14.01 90.00,14.00 90.10,14.01 90.20,14.06 90.30,14.13 90.40,14.23 90.50,14.35 90.60,14.49 90.70,14.65 90.80,14.82 90.90,15.00 91.00,15.18 91.10,15.36 91.20,15.54 91.30,15.71 91.40,15.87 91.50,16.03 91.60,16.17 91.70,16.29 91.80,16.41 91.90,16.51 92.00,16.59 92.10,16.67 92.20,16.73 92.30,16.79 92.40,16.83 92.50,16.87 92.60,16.90 92.70,16.92 92.80,16.94 92.90,16.96 93.00,16.97 93.10,16.98 93.20,16.98 93.30,16.99 93.40,16.99 93.50,16.99 93.60,17.00 93.70,17.00 93.80,17.00 93.90,17.00 94.00,17.00 94.10,17.00 94.20,17.00 94.30,17.00 94.40,17.00 94.50,17.00 94.60,17.00 94.70,17.00 94.80,17.00 94.90,17.00 95.00,17.00 95.10,17.00 95.20,17.00 95.30,17.00 95.40,17.00 95.50,17.00 95.60,17.00 95.70,17.00 95.80,17.00 95.90,17.00 96.00,17.00 96.10,17.00 96.20,17.00 96.30,17.00 96.40,17.00 96.50,17.00 96.60,17.00 96.70,17.00 96.80,17.00 96.90,17.00 97.00,17.00 97.10,17.00 97.20,17.00 97.30,17.00 97.40,17.00 97.50,17.00 97.60,17.00 97.70,17.00 97.80,17.00 97.90,17.00 98.00,17.00 98.10,17.00 98.20,17.00 98.30,17.00 98.40,17.00 98.50,17.00 98.60,17.00 98.70,17.00 98.80,17.00 98.90,17.00 99.00,17.00 99.10,17.00 99.20,17.00 99.30,17.00 99.40,17.00 99.50,17.00 99.60,17.00 99.70,17.00 99.80,17.00 99.90,17.00 100.00,17.00 100.10,17.00 100.20,17.00 100.30,17.00 100.40,17.00 100.50,17.00 100.60,17.00 100.70,17.00 100.80,17.00 100.90,17.00 101.00,17.00 101.10,17.00 101.20,17.00 101.30,17.00 101.40,17.00 101.50,17.00 101.60,17.00 101.70,17.00 101.80,17.00 101.90,17.00 102.00,17.00 102.10,17.00 102.20,17.00 102.30,17.00 102.40,17.00 102.50,17.00 102.60,17.00 102.70,17.00 102.80,17.00 102.90,17.00 103.00,17.00 103.10,17.00 103.20,17.00 103.30,17.00 103.40,17.00 103.50,17.00 103.60,17.00 103.70,17.00 103.80,17.00 103.90,17.00 104.00,17.00 104.10,17.00 104.20,17.00 104.30,17.00 104.40,17.00 104.50,17.00 104.60,17.00 104.70,17.00 104.80,17.00 104.90,17.00 105.00,17.00 105.10,17.00 105.20,17.00 105.30,17.00 105.40,17.00 105.50,17.00 105.60,17.00 105.70,17.00 105.80,17.00 105.90,17.00 106.00,17.00 106.10,17.00 106.20,17.00 106.30,17.00 106.40,17.00 106.50,17.00 106.60,17.00 106.70,17.00 106.80,17.00 106.90,17.00 107.00,17.00 107.10,17.00 107.20,17.00 107.30,17.00 107.40,17.00 107.50,17.00 107.60,17.00 107.70,17.00 107.80,17.00 107.90,17.00 108.00,17.00 108.10,17.00 108.20,17.00 108.30,17.00 108.40,17.00 108.50,17.00 108.60,17.00 108.70,17.00 108.80,17.00 108.90,17.00 109.00,17.00 109.10,17.00 109.20,17.00 109.30,17.00 109.40,17.00 109.50,17.00 109.60,17.00 109.70,17.00 109.80,17.00 109.90,17.00 110.00,17.00 110.10,17.00 110.20,17.00 110.30,17.00 110.40,17.00 110.50,17.00 110.60,17.00 110.70,17.00 110.80,17.00 110.90,17.00 111.00,17.00 111.10,17.00 111.20,17.00 111.30,17.00 111.40,17.00 111.50,17.00 111.60,17.00 111.70,17.00 111.80,17.00 111.90,17.00 112.00,17.00 112.10,17.00 112.20,17.00 112.30,17.00 112.40,17.00" fill="none" stroke="#1b1b1b" stroke-width="0.42" stroke-linejoin="round" stroke-linecap="round"/>
<text x="76.5" y="4.2" font-family="Arial,Helvetica,sans-serif" font-size="3.40" font-weight="700" fill="#7a1010">V3</text>
<path d="M75.0 1.0V27.0" stroke="#7a1010" stroke-width="0.3"/>
<polyline points="112.50,17.00 112.60,17.00 112.70,17.00 112.80,17.00 112.90,17.00 113.00,17.00 113.10,17.00 113.20,17.00 113.30,17.00 113.40,17.00 113.50,17.00 113.60,17.00 113.70,17.00 113.80,17.00 113.90,17.00 114.00,17.00 114.10,17.00 114.20,17.00 114.30,17.00 114.40,17.00 114.50,17.00 114.60,17.00 114.70,17.00 114.80,17.00 114.90,17.00 115.00,17.00 115.10,17.00 115.20,17.00 115.30,17.00 115.40,17.00 115.50,17.00 115.60,16.99 115.70,16.99 115.80,16.98 115.90,16.97 116.00,16.94 116.10,16.91 116.20,16.86 116.30,16.79 116.40,16.69 116.50,16.58 116.60,16.44 116.70,16.29 116.80,16.13 116.90,15.98 117.00,15.85 117.10,15.76 117.20,15.71 117.30,15.71 117.40,15.76 117.50,15.85 117.60,15.98 117.70,16.13 117.80,16.29 117.90,16.44 118.00,16.58 118.10,16.69 118.20,16.79 118.30,16.86 118.40,16.91 118.50,16.94 118.60,16.97 118.70,16.98 118.80,16.99 118.90,16.99 119.00,17.00 119.10,17.00 119.20,17.00 119.30,17.00 119.40,17.00 119.50,17.00 119.60,17.00 119.70,17.00 119.80,17.01 119.90,17.06 120.00,17.18 120.10,17.39 120.20,17.57 120.30,17.46 120.40,16.79 120.50,15.44 120.60,13.43 120.70,10.99 120.80,8.67 120.90,7.22 121.00,7.27 121.10,8.84 121.20,11.37 121.30,14.07 121.40,16.36 121.50,17.95 121.60,18.82 121.70,19.05 121.80,18.81 121.90,18.33 122.00,17.82 122.10,17.44 122.20,17.20 122.30,17.07 122.40,17.02 122.50,17.00 122.60,17.00 122.70,16.99 122.80,16.99 122.90,16.99 123.00,16.99 123.10,16.98 123.20,16.98 123.30,16.97 123.40,16.96 123.50,16.96 123.60,16.95 123.70,16.93 123.80,16.92 123.90,16.90 124.00,16.88 124.10,16.86 124.20,16.83 124.30,16.80 124.40,16.76 124.50,16.72 124.60,16.68 124.70,16.62 124.80,16.56 124.90,16.50 125.00,16.43 125.10,16.35 125.20,16.26 125.30,16.17 125.40,16.07 125.50,15.96 125.60,15.85 125.70,15.73 125.80,15.60 125.90,15.48 126.00,15.35 126.10,15.21 126.20,15.08 126.30,14.95 126.40,14.82 126.50,14.70 126.60,14.58 126.70,14.47 126.80,14.36 126.90,14.27 127.00,14.19 127.10,14.12 127.20,14.07 127.30,14.03 127.40,14.01 127.50,14.00 127.60,14.01 127.70,14.06 127.80,14.13 127.90,14.23 128.00,14.35 128.10,14.49 128.20,14.65 128.30,14.82 128.40,15.00 128.50,15.18 128.60,15.36 128.70,15.54 128.80,15.71 128.90,15.87 129.00,16.03 129.10,16.17 129.20,16.29 129.30,16.41 129.40,16.51 129.50,16.59 129.60,16.67 129.70,16.73 129.80,16.79 129.90,16.83 130.00,16.87 130.10,16.90 130.20,16.92 130.30,16.94 130.40,16.96 130.50,16.97 130.60,16.98 130.70,16.98 130.80,16.99 130.90,16.99 131.00,16.99 131.10,17.00 131.20,17.00 131.30,17.00 131.40,17.00 131.50,17.00 131.60,17.00 131.70,17.00 131.80,17.00 131.90,17.00 132.00,17.00 132.10,17.00 132.20,17.00 132.30,17.00 132.40,17.00 132.50,17.00 132.60,17.00 132.70,17.00 132.80,17.00 132.90,17.00 133.00,17.00 133.10,17.00 133.20,17.00 133.30,17.00 133.40,17.00 133.50,17.00 133.60,17.00 133.70,17.00 133.80,17.00 133.90,17.00 134.00,17.00 134.10,17.00 134.20,17.00 134.30,17.00 134.40,17.00 134.50,17.00 134.60,17.00 134.70,17.00 134.80,17.00 134.90,17.00 135.00,17.00 135.10,17.00 135.20,17.00 135.30,17.00 135.40,17.00 135.50,17.00 135.60,17.00 135.70,17.00 135.80,17.00 135.90,17.00 136.00,17.00 136.10,17.00 136.20,17.00 136.30,17.00 136.40,17.00 136.50,17.00 136.60,17.00 136.70,17.00 136.80,17.00 136.90,17.00 137.00,17.00 137.10,17.00 137.20,17.00 137.30,17.00 137.40,17.00 137.50,17.00 137.60,17.00 137.70,17.00 137.80,17.00 137.90,17.00 138.00,17.00 138.10,17.00 138.20,17.00 138.30,17.00 138.40,17.00 138.50,17.00 138.60,17.00 138.70,17.00 138.80,17.00 138.90,17.00 139.00,17.00 139.10,17.00 139.20,17.00 139.30,17.00 139.40,17.00 139.50,17.00 139.60,17.00 139.70,17.00 139.80,17.00 139.90,17.00 140.00,17.00 140.10,17.00 140.20,17.00 140.30,17.00 140.40,17.00 140.50,17.00 140.60,17.00 140.70,17.00 140.80,17.00 140.90,17.00 141.00,17.00 141.10,17.00 141.20,17.00 141.30,17.00 141.40,17.00 141.50,17.00 141.60,17.00 141.70,17.00 141.80,17.00 141.90,17.00 142.00,17.00 142.10,17.00 142.20,17.00 142.30,17.00 142.40,17.00 142.50,17.00 142.60,17.00 142.70,17.00 142.80,17.00 142.90,17.00 143.00,17.00 143.10,17.00 143.20,17.00 143.30,17.00 143.40,17.00 143.50,17.00 143.60,17.00 143.70,17.00 143.80,17.00 143.90,17.00 144.00,17.00 144.10,17.00 144.20,17.00 144.30,17.00 144.40,17.00 144.50,17.00 144.60,17.00 144.70,17.00 144.80,17.00 144.90,17.00 145.00,17.00 145.10,17.00 145.20,17.00 145.30,17.00 145.40,17.00 145.50,17.00 145.60,17.00 145.70,17.00 145.80,17.00 145.90,17.00 146.00,17.00 146.10,17.00 146.20,17.00 146.30,17.00 146.40,17.00 146.50,17.00 146.60,17.00 146.70,17.00 146.80,17.00 146.90,17.00 147.00,17.00 147.10,17.00 147.20,17.00 147.30,17.00 147.40,17.00 147.50,17.00 147.60,17.00 147.70,17.00 147.80,17.00 147.90,17.00 148.00,17.00 148.10,17.00 148.20,17.00 148.30,17.00 148.40,17.00 148.50,17.00 148.60,17.00 148.70,17.00 148.80,17.00 148.90,17.00 149.00,17.00 149.10,17.00 149.20,17.00 149.30,17.00 149.40,17.00 149.50,17.00 149.60,17.00 149.70,17.00 149.80,17.00 149.90,17.00" fill="none" stroke="#1b1b1b" stroke-width="0.42" stroke-linejoin="round" stroke-linecap="round"/>
<text x="114.0" y="4.2" font-family="Arial,Helvetica,sans-serif" font-size="3.40" font-weight="700" fill="#7a1010">V4</text>
<path d="M112.5 1.0V27.0" stroke="#7a1010" stroke-width="0.3"/>
<text x="148.5" y="30.5" text-anchor="end" font-family="Arial,Helvetica,sans-serif" font-size="2.30" fill="#8a5a5e">Schematic illustration · 25 mm/s · 10 mm/mV · ecgmeans.com</text>
</svg>