<svg xmlns="http://www.w3.org/2000/svg" viewBox="0 0 150 32" width="600" height="126" role="img" aria-label="sinus rhythm with one early beat that has a differently shaped P wave (a PAC)">
<title>sinus rhythm with one early beat that has a differently shaped P wave (a PAC)</title>
<rect width="150" height="32" fill="#fff8f8"/>
<path d="M1 0V32M2 0V32M3 0V32M4 0V32M6 0V32M7 0V32M8 0V32M9 0V32M11 0V32M12 0V32M13 0V32M14 0V32M16 0V32M17 0V32M18 0V32M19 0V32M21 0V32M22 0V32M23 0V32M24 0V32M26 0V32M27 0V32M28 0V32M29 0V32M31 0V32M32 0V32M33 0V32M34 0V32M36 0V32M37 0V32M38 0V32M39 0V32M41 0V32M42 0V32M43 0V32M44 0V32M46 0V32M47 0V32M48 0V32M49 0V32M51 0V32M52 0V32M53 0V32M54 0V32M56 0V32M57 0V32M58 0V32M59 0V32M61 0V32M62 0V32M63 0V32M64 0V32M66 0V32M67 0V32M68 0V32M69 0V32M71 0V32M72 0V32M73 0V32M74 0V32M76 0V32M77 0V32M78 0V32M79 0V32M81 0V32M82 0V32M83 0V32M84 0V32M86 0V32M87 0V32M88 0V32M89 0V32M91 0V32M92 0V32M93 0V32M94 0V32M96 0V32M97 0V32M98 0V32M99 0V32M101 0V32M102 0V32M103 0V32M104 0V32M106 0V32M107 0V32M108 0V32M109 0V32M111 0V32M112 0V32M113 0V32M114 0V32M116 0V32M117 0V32M118 0V32M119 0V32M121 0V32M122 0V32M123 0V32M124 0V32M126 0V32M127 0V32M128 0V32M129 0V32M131 0V32M132 0V32M133 0V32M134 0V32M136 0V32M137 0V32M138 0V32M139 0V32M141 0V32M142 0V32M143 0V32M144 0V32M146 0V32M147 0V32M148 0V32M149 0V32M0 1H150M0 2H150M0 3H150M0 4H150M0 6H150M0 7H150M0 8H150M0 9H150M0 11H150M0 12H150M0 13H150M0 14H150M0 16H150M0 17H150M0 18H150M0 19H150M0 21H150M0 22H150M0 23H150M0 24H150M0 26H150M0 27H150M0 28H150M0 29H150M0 31H150" stroke="#f6c9cd" stroke-width="0.1"/>
<path d="M0 0V32M5 0V32M10 0V32M15 0V32M20 0V32M25 0V32M30 0V32M35 0V32M40 0V32M45 0V32M50 0V32M55 0V32M60 0V32M65 0V32M70 0V32M75 0V32M80 0V32M85 0V32M90 0V32M95 0V32M100 0V32M105 0V32M110 0V32M115 0V32M120 0V32M125 0V32M130 0V32M135 0V32M140 0V32M145 0V32M150 0V32M0 0H150M0 5H150M0 10H150M0 15H150M0 20H150M0 25H150M0 30H150" stroke="#ec9ea6" stroke-width="0.25"/>
<polyline points="0.00,17.00 0.10,17.00 0.20,17.00 0.30,17.00 0.40,17.00 0.50,17.00 0.60,17.00 0.70,17.00 0.80,17.00 0.90,17.00 1.00,17.00 1.10,17.00 1.20,17.00 1.30,17.00 1.40,17.00 1.50,17.00 1.60,17.00 1.70,17.00 1.80,17.00 1.90,17.00 2.00,17.00 2.10,17.00 2.20,17.00 2.30,17.00 2.40,17.00 2.50,17.00 2.60,17.00 2.70,17.00 2.80,17.00 2.90,17.00 3.00,17.00 3.10,17.00 3.20,17.00 3.30,17.00 3.40,17.00 3.50,17.00 3.60,17.00 3.70,17.00 3.80,17.00 3.90,17.00 4.00,17.00 4.10,17.00 4.20,17.00 4.30,17.00 4.40,16.99 4.50,16.99 4.60,16.97 4.70,16.96 4.80,16.93 4.90,16.88 5.00,16.82 5.10,16.74 5.20,16.64 5.30,16.51 5.40,16.37 5.50,16.21 5.60,16.06 5.70,15.91 5.80,15.80 5.90,15.73 6.00,15.70 6.10,15.73 6.20,15.80 6.30,15.91 6.40,16.06 6.50,16.21 6.60,16.37 6.70,16.51 6.80,16.64 6.90,16.74 7.00,16.82 7.10,16.88 7.20,16.93 7.30,16.96 7.40,16.97 7.50,16.99 7.60,16.99 7.70,17.00 7.80,17.00 7.90,17.00 8.00,17.00 8.10,17.00 8.20,17.00 8.30,17.00 8.40,17.00 8.50,17.01 8.60,17.03 8.70,17.10 8.80,17.27 8.90,17.49 9.00,17.57 9.10,17.21 9.20,16.20 9.30,14.51 9.40,12.24 9.50,9.77 9.60,7.79 9.70,7.04 9.80,7.89 9.90,10.04 10.00,12.74 10.10,15.29 10.20,17.24 10.30,18.47 10.40,19.00 10.50,18.97 10.60,18.58 10.70,18.07 10.80,17.61 10.90,17.30 11.00,17.12 11.10,17.04 11.20,17.01 11.30,17.00 11.40,16.99 11.50,16.99 11.60,16.99 11.70,16.99 11.80,16.98 11.90,16.98 12.00,16.97 12.10,16.97 12.20,16.96 12.30,16.95 12.40,16.94 12.50,16.93 12.60,16.91 12.70,16.89 12.80,16.87 12.90,16.85 13.00,16.82 13.10,16.78 13.20,16.74 13.30,16.70 13.40,16.65 13.50,16.59 13.60,16.53 13.70,16.46 13.80,16.39 13.90,16.30 14.00,16.21 14.10,16.12 14.20,16.01 14.30,15.90 14.40,15.79 14.50,15.67 14.60,15.54 14.70,15.41 14.80,15.28 14.90,15.15 15.00,15.02 15.10,14.89 15.20,14.76 15.30,14.64 15.40,14.52 15.50,14.41 15.60,14.32 15.70,14.23 15.80,14.16 15.90,14.10 16.00,14.05 16.10,14.02 16.20,14.00 16.30,14.00 16.40,14.03 16.50,14.09 16.60,14.18 16.70,14.29 16.80,14.42 16.90,14.57 17.00,14.74 17.10,14.91 17.20,15.09 17.30,15.27 17.40,15.45 17.50,15.63 17.60,15.79 17.70,15.95 17.80,16.10 17.90,16.23 18.00,16.35 18.10,16.46 18.20,16.55 18.30,16.63 18.40,16.70 18.50,16.76 18.60,16.81 18.70,16.85 18.80,16.88 18.90,16.91 19.00,16.93 19.10,16.95 19.20,16.96 19.30,16.97 19.40,16.98 19.50,16.98 19.60,16.99 19.70,16.99 19.80,16.99 19.90,17.00 20.00,17.00 20.10,17.00 20.20,17.00 20.30,17.00 20.40,17.00 20.50,17.00 20.60,17.00 20.70,17.00 20.80,17.00 20.90,17.00 21.00,17.00 21.10,17.00 21.20,17.00 21.30,17.00 21.40,17.00 21.50,17.00 21.60,17.00 21.70,17.00 21.80,17.00 21.90,17.00 22.00,17.00 22.10,17.00 22.20,17.00 22.30,17.00 22.40,17.00 22.50,17.00 22.60,17.00 22.70,17.00 22.80,17.00 22.90,17.00 23.00,17.00 23.10,17.00 23.20,17.00 23.30,17.00 23.40,17.00 23.50,17.00 23.60,17.00 23.70,17.00 23.80,17.00 23.90,17.00 24.00,17.00 24.10,17.00 24.20,17.00 24.30,17.00 24.40,17.00 24.50,17.00 24.60,17.00 24.70,17.00 24.80,17.00 24.90,17.00 25.00,17.00 25.10,16.99 25.20,16.99 25.30,16.98 25.40,16.97 25.50,16.94 25.60,16.91 25.70,16.86 25.80,16.79 25.90,16.69 26.00,16.58 26.10,16.44 26.20,16.29 26.30,16.13 26.40,15.98 26.50,15.85 26.60,15.76 26.70,15.71 26.80,15.71 26.90,15.76 27.00,15.85 27.10,15.98 27.20,16.13 27.30,16.29 27.40,16.44 27.50,16.58 27.60,16.69 27.70,16.79 27.80,16.86 27.90,16.91 28.00,16.94 28.10,16.97 28.20,16.98 28.30,16.99 28.40,16.99 28.50,17.00 28.60,17.00 28.70,17.00 28.80,17.00 28.90,17.00 29.00,17.00 29.10,17.00 29.20,17.00 29.30,17.01 29.40,17.06 29.50,17.18 29.60,17.39 29.70,17.57 29.80,17.46 29.90,16.79 30.00,15.44 30.10,13.43 30.20,10.99 30.30,8.67 30.40,7.22 30.50,7.27 30.60,8.84 30.70,11.37 30.80,14.07 30.90,16.36 31.00,17.95 31.10,18.82 31.20,19.05 31.30,18.81 31.40,18.33 31.50,17.82 31.60,17.44 31.70,17.20 31.80,17.07 31.90,17.02 32.00,17.00 32.10,17.00 32.20,16.99 32.30,16.99 32.40,16.99 32.50,16.99 32.60,16.98 32.70,16.98 32.80,16.97 32.90,16.96 33.00,16.96 33.10,16.95 33.20,16.93 33.30,16.92 33.40,16.90 33.50,16.88 33.60,16.86 33.70,16.83 33.80,16.80 33.90,16.76 34.00,16.72 34.10,16.68 34.20,16.62 34.30,16.56 34.40,16.50 34.50,16.43 34.60,16.35 34.70,16.26 34.80,16.17 34.90,16.07 35.00,15.96 35.10,15.85 35.20,15.73 35.30,15.60 35.40,15.48 35.50,15.35 35.60,15.21 35.70,15.08 35.80,14.95 35.90,14.82 36.00,14.70 36.10,14.58 36.20,14.47 36.30,14.36 36.40,14.27 36.50,14.19 36.60,14.12 36.70,14.07 36.80,14.03 36.90,14.01 37.00,14.00 37.10,14.01 37.20,14.06 37.30,14.13 37.40,14.23 37.50,14.35 37.60,14.49 37.70,14.65 37.80,14.82 37.90,15.00 38.00,15.18 38.10,15.36 38.20,15.54 38.30,15.71 38.40,15.87 38.50,16.03 38.60,16.17 38.70,16.29 38.80,16.41 38.90,16.51 39.00,16.59 39.10,16.67 39.20,16.73 39.30,16.79 39.40,16.83 39.50,16.87 39.60,16.90 39.70,16.92 39.80,16.94 39.90,16.96 40.00,16.97 40.10,16.98 40.20,16.98 40.30,16.99 40.40,16.99 40.50,16.99 40.60,17.00 40.70,17.00 40.80,17.00 40.90,17.00 41.00,17.00 41.10,17.00 41.20,17.00 41.30,17.00 41.40,17.00 41.50,17.00 41.60,17.00 41.70,17.00 41.80,17.00 41.90,17.00 42.00,17.00 42.10,17.00 42.20,17.00 42.30,17.00 42.40,17.00 42.50,17.00 42.60,17.00 42.70,17.00 42.80,17.00 42.90,17.00 43.00,17.00 43.10,17.00 43.20,17.00 43.30,17.00 43.40,17.00 43.50,17.00 43.60,17.00 43.70,17.00 43.80,17.00 43.90,17.00 44.00,17.00 44.10,17.00 44.20,17.00 44.30,17.00 44.40,17.00 44.50,17.00 44.60,17.00 44.70,17.00 44.80,17.00 44.90,17.00 45.00,17.00 45.10,17.00 45.20,17.00 45.30,17.00 45.40,17.00 45.50,17.00 45.60,17.00 45.70,17.00 45.80,17.00 45.90,16.99 46.00,16.99 46.10,16.97 46.20,16.96 46.30,16.93 46.40,16.88 46.50,16.82 46.60,16.74 46.70,16.64 46.80,16.51 46.90,16.37 47.00,16.21 47.10,16.06 47.20,15.91 47.30,15.80 47.40,15.73 47.50,15.70 47.60,15.73 47.70,15.80 47.80,15.91 47.90,16.06 48.00,16.21 48.10,16.37 48.20,16.51 48.30,16.64 48.40,16.74 48.50,16.82 48.60,16.88 48.70,16.93 48.80,16.96 48.90,16.97 49.00,16.99 49.10,16.99 49.20,17.00 49.30,17.00 49.40,17.00 49.50,17.00 49.60,17.00 49.70,17.00 49.80,17.00 49.90,17.00 50.00,17.01 50.10,17.03 50.20,17.10 50.30,17.27 50.40,17.49 50.50,17.57 50.60,17.21 50.70,16.20 50.80,14.51 50.90,12.24 51.00,9.77 51.10,7.79 51.20,7.04 51.30,7.89 51.40,10.04 51.50,12.74 51.60,15.29 51.70,17.24 51.80,18.47 51.90,19.00 52.00,18.97 52.10,18.58 52.20,18.07 52.30,17.61 52.40,17.30 52.50,17.12 52.60,17.04 52.70,17.01 52.80,17.00 52.90,16.99 53.00,16.99 53.10,16.99 53.20,16.99 53.30,16.98 53.40,16.98 53.50,16.97 53.60,16.97 53.70,16.96 53.80,16.95 53.90,16.94 54.00,16.93 54.10,16.91 54.20,16.89 54.30,16.87 54.40,16.85 54.50,16.82 54.60,16.78 54.70,16.74 54.80,16.70 54.90,16.65 55.00,16.59 55.10,16.53 55.20,16.46 55.30,16.39 55.40,16.30 55.50,16.21 55.60,16.12 55.70,16.01 55.80,15.90 55.90,15.79 56.00,15.67 56.10,15.54 56.20,15.41 56.30,15.28 56.40,15.15 56.50,15.02 56.60,14.89 56.70,14.76 56.80,14.64 56.90,14.52 57.00,14.41 57.10,14.32 57.20,14.23 57.30,14.16 57.40,14.10 57.50,14.05 57.60,14.02 57.70,14.00 57.80,14.00 57.90,14.03 58.00,14.09 58.10,14.18 58.20,14.29 58.30,14.42 58.40,14.57 58.50,14.74 58.60,14.91 58.70,15.09 58.80,15.27 58.90,15.45 59.00,15.63 59.10,15.79 59.20,15.95 59.30,16.10 59.40,16.23 59.50,16.35 59.60,16.46 59.70,16.55 59.80,16.63 59.90,16.70 60.00,16.76 60.10,16.81 60.20,16.85 60.30,16.88 60.40,16.91 60.50,16.93 60.60,16.95 60.70,16.96 60.80,16.97 60.90,16.98 61.00,16.98 61.10,16.99 61.20,16.99 61.30,16.99 61.40,17.00 61.50,17.00 61.60,17.00 61.70,16.99 61.80,16.98 61.90,16.97 62.00,16.94 62.10,16.89 62.20,16.82 62.30,16.72 62.40,16.60 62.50,16.46 62.60,16.31 62.70,16.20 62.80,16.13 62.90,16.13 63.00,16.20 63.10,16.34 63.20,16.54 63.30,16.77 63.40,17.02 63.50,17.26 63.60,17.47 63.70,17.64 63.80,17.74 63.90,17.78 64.00,17.75 64.10,17.66 64.20,17.55 64.30,17.42 64.40,17.30 64.50,17.20 64.60,17.12 64.70,17.07 64.80,17.04 64.90,17.02 65.00,17.01 65.10,17.00 65.20,17.00 65.30,17.01 65.40,17.06 65.50,17.18 65.60,17.39 65.70,17.57 65.80,17.46 65.90,16.79 66.00,15.44 66.10,13.43 66.20,10.99 66.30,8.67 66.40,7.22 66.50,7.27 66.60,8.84 66.70,11.37 66.80,14.07 66.90,16.36 67.00,17.95 67.10,18.82 67.20,19.05 67.30,18.81 67.40,18.33 67.50,17.82 67.60,17.44 67.70,17.20 67.80,17.07 67.90,17.02 68.00,17.00 68.10,17.00 68.20,16.99 68.30,16.99 68.40,16.99 68.50,16.99 68.60,16.98 68.70,16.98 68.80,16.97 68.90,16.96 69.00,16.96 69.10,16.95 69.20,16.93 69.30,16.92 69.40,16.90 69.50,16.88 69.60,16.86 69.70,16.83 69.80,16.80 69.90,16.76 70.00,16.72 70.10,16.68 70.20,16.62 70.30,16.56 70.40,16.50 70.50,16.43 70.60,16.35 70.70,16.26 70.80,16.17 70.90,16.07 71.00,15.96 71.10,15.85 71.20,15.73 71.30,15.60 71.40,15.48 71.50,15.35 71.60,15.21 71.70,15.08 71.80,14.95 71.90,14.82 72.00,14.70 72.10,14.58 72.20,14.47 72.30,14.36 72.40,14.27 72.50,14.19 72.60,14.12 72.70,14.07 72.80,14.03 72.90,14.01 73.00,14.00 73.10,14.01 73.20,14.06 73.30,14.13 73.40,14.23 73.50,14.35 73.60,14.49 73.70,14.65 73.80,14.82 73.90,15.00 74.00,15.18 74.10,15.36 74.20,15.54 74.30,15.71 74.40,15.87 74.50,16.03 74.60,16.17 74.70,16.29 74.80,16.41 74.90,16.51 75.00,16.59 75.10,16.67 75.20,16.73 75.30,16.79 75.40,16.83 75.50,16.87 75.60,16.90 75.70,16.92 75.80,16.94 75.90,16.96 76.00,16.97 76.10,16.98 76.20,16.98 76.30,16.99 76.40,16.99 76.50,16.99 76.60,17.00 76.70,17.00 76.80,17.00 76.90,17.00 77.00,17.00 77.10,17.00 77.20,17.00 77.30,17.00 77.40,17.00 77.50,17.00 77.60,17.00 77.70,17.00 77.80,17.00 77.90,17.00 78.00,17.00 78.10,17.00 78.20,17.00 78.30,17.00 78.40,17.00 78.50,17.00 78.60,17.00 78.70,17.00 78.80,17.00 78.90,17.00 79.00,17.00 79.10,17.00 79.20,17.00 79.30,17.00 79.40,17.00 79.50,17.00 79.60,17.00 79.70,17.00 79.80,17.00 79.90,17.00 80.00,17.00 80.10,17.00 80.20,17.00 80.30,17.00 80.40,17.00 80.50,17.00 80.60,17.00 80.70,17.00 80.80,17.00 80.90,17.00 81.00,17.00 81.10,17.00 81.20,17.00 81.30,17.00 81.40,17.00 81.50,17.00 81.60,17.00 81.70,17.00 81.80,17.00 81.90,17.00 82.00,17.00 82.10,17.00 82.20,17.00 82.30,17.00 82.40,17.00 82.50,17.00 82.60,17.00 82.70,17.00 82.80,17.00 82.90,17.00 83.00,17.00 83.10,16.99 83.20,16.99 83.30,16.98 83.40,16.97 83.50,16.94 83.60,16.91 83.70,16.86 83.80,16.79 83.90,16.69 84.00,16.58 84.10,16.44 84.20,16.29 84.30,16.13 84.40,15.98 84.50,15.85 84.60,15.76 84.70,15.71 84.80,15.71 84.90,15.76 85.00,15.85 85.10,15.98 85.20,16.13 85.30,16.29 85.40,16.44 85.50,16.58 85.60,16.69 85.70,16.79 85.80,16.86 85.90,16.91 86.00,16.94 86.10,16.97 86.20,16.98 86.30,16.99 86.40,16.99 86.50,17.00 86.60,17.00 86.70,17.00 86.80,17.00 86.90,17.00 87.00,17.00 87.10,17.00 87.20,17.00 87.30,17.01 87.40,17.06 87.50,17.18 87.60,17.39 87.70,17.57 87.80,17.46 87.90,16.79 88.00,15.44 88.10,13.43 88.20,10.99 88.30,8.67 88.40,7.22 88.50,7.27 88.60,8.84 88.70,11.37 88.80,14.07 88.90,16.36 89.00,17.95 89.10,18.82 89.20,19.05 89.30,18.81 89.40,18.33 89.50,17.82 89.60,17.44 89.70,17.20 89.80,17.07 89.90,17.02 90.00,17.00 90.10,17.00 90.20,16.99 90.30,16.99 90.40,16.99 90.50,16.99 90.60,16.98 90.70,16.98 90.80,16.97 90.90,16.96 91.00,16.96 91.10,16.95 91.20,16.93 91.30,16.92 91.40,16.90 91.50,16.88 91.60,16.86 91.70,16.83 91.80,16.80 91.90,16.76 92.00,16.72 92.10,16.68 92.20,16.62 92.30,16.56 92.40,16.50 92.50,16.43 92.60,16.35 92.70,16.26 92.80,16.17 92.90,16.07 93.00,15.96 93.10,15.85 93.20,15.73 93.30,15.60 93.40,15.48 93.50,15.35 93.60,15.21 93.70,15.08 93.80,14.95 93.90,14.82 94.00,14.70 94.10,14.58 94.20,14.47 94.30,14.36 94.40,14.27 94.50,14.19 94.60,14.12 94.70,14.07 94.80,14.03 94.90,14.01 95.00,14.00 95.10,14.01 95.20,14.06 95.30,14.13 95.40,14.23 95.50,14.35 95.60,14.49 95.70,14.65 95.80,14.82 95.90,15.00 96.00,15.18 96.10,15.36 96.20,15.54 96.30,15.71 96.40,15.87 96.50,16.03 96.60,16.17 96.70,16.29 96.80,16.41 96.90,16.51 97.00,16.59 97.10,16.67 97.20,16.73 97.30,16.79 97.40,16.83 97.50,16.87 97.60,16.90 97.70,16.92 97.80,16.94 97.90,16.96 98.00,16.97 98.10,16.98 98.20,16.98 98.30,16.99 98.40,16.99 98.50,16.99 98.60,17.00 98.70,17.00 98.80,17.00 98.90,17.00 99.00,17.00 99.10,17.00 99.20,17.00 99.30,17.00 99.40,17.00 99.50,17.00 99.60,17.00 99.70,17.00 99.80,17.00 99.90,17.00 100.00,17.00 100.10,17.00 100.20,17.00 100.30,17.00 100.40,17.00 100.50,17.00 100.60,17.00 100.70,17.00 100.80,17.00 100.90,17.00 101.00,17.00 101.10,17.00 101.20,17.00 101.30,17.00 101.40,17.00 101.50,17.00 101.60,17.00 101.70,17.00 101.80,17.00 101.90,17.00 102.00,17.00 102.10,17.00 102.20,17.00 102.30,17.00 102.40,17.00 102.50,17.00 102.60,17.00 102.70,17.00 102.80,17.00 102.90,17.00 103.00,17.00 103.10,17.00 103.20,17.00 103.30,17.00 103.40,17.00 103.50,17.00 103.60,17.00 103.70,17.00 103.80,17.00 103.90,16.99 104.00,16.99 104.10,16.97 104.20,16.96 104.30,16.93 104.40,16.88 104.50,16.82 104.60,16.74 104.70,16.64 104.80,16.51 104.90,16.37 105.00,16.21 105.10,16.06 105.20,15.91 105.30,15.80 105.40,15.73 105.50,15.70 105.60,15.73 105.70,15.80 105.80,15.91 105.90,16.06 106.00,16.21 106.10,16.37 106.20,16.51 106.30,16.64 106.40,16.74 106.50,16.82 106.60,16.88 106.70,16.93 106.80,16.96 106.90,16.97 107.00,16.99 107.10,16.99 107.20,17.00 107.30,17.00 107.40,17.00 107.50,17.00 107.60,17.00 107.70,17.00 107.80,17.00 107.90,17.00 108.00,17.01 108.10,17.03 108.20,17.10 108.30,17.27 108.40,17.49 108.50,17.57 108.60,17.21 108.70,16.20 108.80,14.51 108.90,12.24 109.00,9.77 109.10,7.79 109.20,7.04 109.30,7.89 109.40,10.04 109.50,12.74 109.60,15.29 109.70,17.24 109.80,18.47 109.90,19.00 110.00,18.97 110.10,18.58 110.20,18.07 110.30,17.61 110.40,17.30 110.50,17.12 110.60,17.04 110.70,17.01 110.80,17.00 110.90,16.99 111.00,16.99 111.10,16.99 111.20,16.99 111.30,16.98 111.40,16.98 111.50,16.97 111.60,16.97 111.70,16.96 111.80,16.95 111.90,16.94 112.00,16.93 112.10,16.91 112.20,16.89 112.30,16.87 112.40,16.85 112.50,16.82 112.60,16.78 112.70,16.74 112.80,16.70 112.90,16.65 113.00,16.59 113.10,16.53 113.20,16.46 113.30,16.39 113.40,16.30 113.50,16.21 113.60,16.12 113.70,16.01 113.80,15.90 113.90,15.79 114.00,15.67 114.10,15.54 114.20,15.41 114.30,15.28 114.40,15.15 114.50,15.02 114.60,14.89 114.70,14.76 114.80,14.64 114.90,14.52 115.00,14.41 115.10,14.32 115.20,14.23 115.30,14.16 115.40,14.10 115.50,14.05 115.60,14.02 115.70,14.00 115.80,14.00 115.90,14.03 116.00,14.09 116.10,14.18 116.20,14.29 116.30,14.42 116.40,14.57 116.50,14.74 116.60,14.91 116.70,15.09 116.80,15.27 116.90,15.45 117.00,15.63 117.10,15.79 117.20,15.95 117.30,16.10 117.40,16.23 117.50,16.35 117.60,16.46 117.70,16.55 117.80,16.63 117.90,16.70 118.00,16.76 118.10,16.81 118.20,16.85 118.30,16.88 118.40,16.91 118.50,16.93 118.60,16.95 118.70,16.96 118.80,16.97 118.90,16.98 119.00,16.98 119.10,16.99 119.20,16.99 119.30,16.99 119.40,17.00 119.50,17.00 119.60,17.00 119.70,17.00 119.80,17.00 119.90,17.00 120.00,17.00 120.10,17.00 120.20,17.00 120.30,17.00 120.40,17.00 120.50,17.00 120.60,17.00 120.70,17.00 120.80,17.00 120.90,17.00 121.00,17.00 121.10,17.00 121.20,17.00 121.30,17.00 121.40,17.00 121.50,17.00 121.60,17.00 121.70,17.00 121.80,17.00 121.90,17.00 122.00,17.00 122.10,17.00 122.20,17.00 122.30,17.00 122.40,17.00 122.50,17.00 122.60,17.00 122.70,17.00 122.80,17.00 122.90,17.00 123.00,17.00 123.10,17.00 123.20,17.00 123.30,17.00 123.40,17.00 123.50,17.00 123.60,17.00 123.70,17.00 123.80,17.00 123.90,17.00 124.00,17.00 124.10,17.00 124.20,17.00 124.30,17.00 124.40,17.00 124.50,17.00 124.60,16.99 124.70,16.99 124.80,16.98 124.90,16.97 125.00,16.94 125.10,16.91 125.20,16.86 125.30,16.79 125.40,16.69 125.50,16.58 125.60,16.44 125.70,16.29 125.80,16.13 125.90,15.98 126.00,15.85 126.10,15.76 126.20,15.71 126.30,15.71 126.40,15.76 126.50,15.85 126.60,15.98 126.70,16.13 126.80,16.29 126.90,16.44 127.00,16.58 127.10,16.69 127.20,16.79 127.30,16.86 127.40,16.91 127.50,16.94 127.60,16.97 127.70,16.98 127.80,16.99 127.90,16.99 128.00,17.00 128.10,17.00 128.20,17.00 128.30,17.00 128.40,17.00 128.50,17.00 128.60,17.00 128.70,17.00 128.80,17.01 128.90,17.06 129.00,17.18 129.10,17.39 129.20,17.57 129.30,17.46 129.40,16.79 129.50,15.44 129.60,13.43 129.70,10.99 129.80,8.67 129.90,7.22 130.00,7.27 130.10,8.84 130.20,11.37 130.30,14.07 130.40,16.36 130.50,17.95 130.60,18.82 130.70,19.05 130.80,18.81 130.90,18.33 131.00,17.82 131.10,17.44 131.20,17.20 131.30,17.07 131.40,17.02 131.50,17.01 131.60,17.00 131.70,16.99 131.80,16.99 131.90,16.99 132.00,16.99 132.10,16.98 132.20,16.98 132.30,16.97 132.40,16.96 132.50,16.96 132.60,16.95 132.70,16.93 132.80,16.92 132.90,16.90 133.00,16.88 133.10,16.86 133.20,16.83 133.30,16.80 133.40,16.76 133.50,16.72 133.60,16.68 133.70,16.62 133.80,16.56 133.90,16.50 134.00,16.43 134.10,16.35 134.20,16.26 134.30,16.17 134.40,16.07 134.50,15.96 134.60,15.85 134.70,15.73 134.80,15.60 134.90,15.48 135.00,15.35 135.10,15.21 135.20,15.08 135.30,14.95 135.40,14.82 135.50,14.70 135.60,14.58 135.70,14.47 135.80,14.36 135.90,14.27 136.00,14.19 136.10,14.12 136.20,14.07 136.30,14.03 136.40,14.01 136.50,14.00 136.60,14.01 136.70,14.06 136.80,14.13 136.90,14.23 137.00,14.35 137.10,14.49 137.20,14.65 137.30,14.82 137.40,15.00 137.50,15.18 137.60,15.36 137.70,15.54 137.80,15.71 137.90,15.87 138.00,16.03 138.10,16.17 138.20,16.29 138.30,16.41 138.40,16.51 138.50,16.59 138.60,16.67 138.70,16.73 138.80,16.79 138.90,16.83 139.00,16.87 139.10,16.90 139.20,16.92 139.30,16.94 139.40,16.96 139.50,16.97 139.60,16.98 139.70,16.98 139.80,16.99 139.90,16.99 140.00,16.99 140.10,17.00 140.20,17.00 140.30,17.00 140.40,17.00 140.50,17.00 140.60,17.00 140.70,17.00 140.80,17.00 140.90,17.00 141.00,17.00 141.10,17.00 141.20,17.00 141.30,17.00 141.40,17.00 141.50,17.00 141.60,17.00 141.70,17.00 141.80,17.00 141.90,17.00 142.00,17.00 142.10,17.00 142.20,17.00 142.30,17.00 142.40,17.00 142.50,17.00 142.60,17.00 142.70,17.00 142.80,17.00 142.90,17.00 143.00,17.00 143.10,17.00 143.20,17.00 143.30,17.00 143.40,17.00 143.50,17.00 143.60,17.00 143.70,17.00 143.80,17.00 143.90,17.00 144.00,17.00 144.10,17.00 144.20,17.00 144.30,17.00 144.40,17.00 144.50,17.00 144.60,17.00 144.70,17.00 144.80,17.00 144.90,17.00 145.00,17.00 145.10,17.00 145.20,17.00 145.30,17.00 145.40,17.00 145.50,17.00 145.60,17.00 145.70,17.00 145.80,17.00 145.90,17.00 146.00,17.00 146.10,17.00 146.20,17.00 146.30,17.00 146.40,17.00 146.50,17.00 146.60,17.00 146.70,17.00 146.80,17.00 146.90,17.00 147.00,17.00 147.10,17.00 147.20,17.00 147.30,17.00 147.40,17.00 147.50,17.00 147.60,17.00 147.70,17.00 147.80,17.00 147.90,17.00 148.00,17.00 148.10,17.00 148.20,17.00 148.30,17.00 148.40,17.00 148.50,17.00 148.60,17.00 148.70,17.00 148.80,17.00 148.90,17.00 149.00,17.00 149.10,17.00 149.20,17.00 149.30,17.00 149.40,17.00 149.50,17.00 149.60,17.00 149.70,17.00 149.80,17.00 149.90,17.00" fill="none" stroke="#1b1b1b" stroke-width="0.42" stroke-linejoin="round" stroke-linecap="round"/>
<text x="1.5" y="4.2" font-family="Arial,Helvetica,sans-serif" font-size="3.40" font-weight="700" fill="#7a1010">II</text>
<text x="63.7" y="3.5" text-anchor="middle" font-family="Arial,Helvetica,sans-serif" font-size="3.00" font-weight="700" fill="#b91c1c">PAC</text>
<text x="148.5" y="30.5" text-anchor="end" font-family="Arial,Helvetica,sans-serif" font-size="2.30" fill="#8a5a5e">Schematic illustration · 25 mm/s · 10 mm/mV · ecgmeans.com</text>
</svg>